<svg xmlns="http://www.w3.org/2000/svg" xmlns:xlink="http://www.w3.org/1999/xlink" width="100" zoomAndPan="magnify" viewBox="0 0 75 74.999997" height="100" preserveAspectRatio="xMidYMid meet" version="1.0"><defs><g/><clipPath id="b2b42a4d60"><rect x="0" width="50" y="0" height="14"/></clipPath><clipPath id="abeb6a31e7"><path d="M 0.238281 1 L 2 1 L 2 5 L 0.238281 5 Z M 0.238281 1 " clip-rule="nonzero"/></clipPath><clipPath id="dd84f45035"><rect x="0" width="40" y="0" height="11"/></clipPath><clipPath id="9284f267f2"><path d="M 22.777344 15 L 55 15 L 55 44.628906 L 22.777344 44.628906 Z M 22.777344 15 " clip-rule="nonzero"/></clipPath><clipPath id="807138ccc5"><path d="M 29 10.128906 L 49 10.128906 L 49 39 L 29 39 Z M 29 10.128906 " clip-rule="nonzero"/></clipPath></defs><g transform="matrix(1, 0, 0, 1, 13, 44)"><g clip-path="url(#b2b42a4d60)"><g fill="#251818" fill-opacity="1"><g transform="translate(0.858804, 10.069339)"><g><path d="M 0.3125 -8.578125 L 7.703125 -8.578125 L 7.703125 -5.859375 L 5.578125 -5.859375 L 5.578125 -6.953125 L 3.625 -6.953125 L 3.625 -5.265625 L 5.953125 -5.265625 L 5.953125 -3.625 L 3.625 -3.625 L 3.625 -1.625 L 5.578125 -1.625 L 5.578125 -2.765625 L 7.703125 -2.765625 L 7.703125 0 L 0.3125 0 L 0.3125 -1.625 L 1.078125 -1.625 L 1.078125 -6.953125 L 0.3125 -6.953125 Z M 0.3125 -8.578125 "/></g></g></g><g fill="#251818" fill-opacity="1"><g transform="translate(8.865349, 10.069339)"><g><path d="M 0.3125 0 L 0.3125 -1.625 L 1.0625 -1.625 L 1.0625 -6.953125 L 0.3125 -6.953125 L 0.3125 -8.578125 L 4.046875 -8.578125 C 5.035156 -8.578125 5.875 -8.390625 6.5625 -8.015625 C 7.257812 -7.648438 7.789062 -7.148438 8.15625 -6.515625 C 8.519531 -5.890625 8.703125 -5.1875 8.703125 -4.40625 C 8.703125 -3.007812 8.296875 -1.925781 7.484375 -1.15625 C 6.671875 -0.382812 5.507812 0 4 0 Z M 3.578125 -1.625 L 4.046875 -1.625 C 4.484375 -1.632812 4.832031 -1.765625 5.09375 -2.015625 C 5.363281 -2.265625 5.5625 -2.597656 5.6875 -3.015625 C 5.820312 -3.429688 5.890625 -3.894531 5.890625 -4.40625 C 5.890625 -4.84375 5.820312 -5.253906 5.6875 -5.640625 C 5.5625 -6.035156 5.363281 -6.351562 5.09375 -6.59375 C 4.832031 -6.832031 4.484375 -6.953125 4.046875 -6.953125 L 3.578125 -6.953125 Z M 3.578125 -1.625 "/></g></g></g><g fill="#251818" fill-opacity="1"><g transform="translate(17.693397, 10.069339)"><g><path d="M 4.53125 -4.703125 L 4.578125 -4.703125 C 4.597656 -4.828125 4.660156 -5 4.765625 -5.21875 C 4.878906 -5.4375 4.96875 -5.617188 5.03125 -5.765625 L 5.703125 -7 L 5.03125 -7 L 5.03125 -8.578125 L 8.328125 -8.578125 L 8.328125 -7 L 7.671875 -7 L 5.390625 -3.015625 L 5.390625 -1.59375 L 6.078125 -1.59375 L 6.078125 0 L 2.15625 0 L 2.15625 -1.59375 L 2.859375 -1.59375 L 2.859375 -3.046875 L 0.484375 -7 L -0.125 -7 L -0.125 -8.578125 L 4.078125 -8.578125 L 4.078125 -7 L 3.4375 -7 L 4.140625 -5.703125 C 4.171875 -5.628906 4.210938 -5.523438 4.265625 -5.390625 C 4.316406 -5.265625 4.367188 -5.140625 4.421875 -5.015625 C 4.472656 -4.890625 4.507812 -4.785156 4.53125 -4.703125 Z M 4.53125 -4.703125 "/></g></g></g><g fill="#282120" fill-opacity="1"><g transform="translate(25.89813, 10.069339)"><g><path d="M 0.578125 -3.734375 L 4.140625 -3.734375 L 4.140625 -2.109375 L 0.578125 -2.109375 Z M 0.578125 -3.734375 "/></g></g></g><g fill="#ffb800" fill-opacity="1"><g transform="translate(30.632705, 10.069339)"><g><path d="M 0.3125 0 L 0.3125 -1.59375 L 1.015625 -1.59375 L 1.015625 -6.984375 L 0.3125 -6.984375 L 0.3125 -8.578125 L 4.875 -8.578125 C 5.90625 -8.578125 6.664062 -8.394531 7.15625 -8.03125 C 7.644531 -7.664062 7.890625 -7.144531 7.890625 -6.46875 C 7.890625 -5.957031 7.800781 -5.5625 7.625 -5.28125 C 7.457031 -5 7.144531 -4.765625 6.6875 -4.578125 C 7.125 -4.453125 7.5 -4.222656 7.8125 -3.890625 C 8.132812 -3.554688 8.296875 -3.085938 8.296875 -2.484375 C 8.296875 -1.617188 8.035156 -0.988281 7.515625 -0.59375 C 7.003906 -0.195312 6.15625 0 4.96875 0 Z M 3.5625 -6.953125 L 3.5625 -5.109375 L 4.3125 -5.109375 C 4.632812 -5.109375 4.851562 -5.191406 4.96875 -5.359375 C 5.082031 -5.535156 5.140625 -5.769531 5.140625 -6.0625 C 5.140625 -6.34375 5.0625 -6.5625 4.90625 -6.71875 C 4.757812 -6.875 4.566406 -6.953125 4.328125 -6.953125 Z M 3.5625 -1.59375 L 4.53125 -1.59375 C 4.800781 -1.59375 5.035156 -1.6875 5.234375 -1.875 C 5.429688 -2.0625 5.53125 -2.320312 5.53125 -2.65625 C 5.53125 -2.957031 5.441406 -3.210938 5.265625 -3.421875 C 5.085938 -3.628906 4.832031 -3.734375 4.5 -3.734375 L 3.5625 -3.734375 Z M 3.5625 -1.59375 "/></g></g></g><g fill="#ffb800" fill-opacity="1"><g transform="translate(39.056132, 10.069339)"><g><path d="M 4.578125 0.21875 C 3.722656 0.21875 2.960938 0.0546875 2.296875 -0.265625 C 1.640625 -0.597656 1.125 -1.101562 0.75 -1.78125 C 0.375 -2.457031 0.1875 -3.304688 0.1875 -4.328125 C 0.1875 -5.210938 0.367188 -5.988281 0.734375 -6.65625 C 1.097656 -7.332031 1.601562 -7.859375 2.25 -8.234375 C 2.894531 -8.617188 3.640625 -8.8125 4.484375 -8.8125 C 5.492188 -8.8125 6.320312 -8.617188 6.96875 -8.234375 C 7.625 -7.859375 8.109375 -7.328125 8.421875 -6.640625 C 8.734375 -5.960938 8.890625 -5.164062 8.890625 -4.25 C 8.890625 -3.320312 8.722656 -2.523438 8.390625 -1.859375 C 8.054688 -1.191406 7.566406 -0.675781 6.921875 -0.3125 C 6.285156 0.0390625 5.503906 0.21875 4.578125 0.21875 Z M 4.578125 -1.703125 C 4.960938 -1.703125 5.265625 -1.9375 5.484375 -2.40625 C 5.710938 -2.875 5.828125 -3.488281 5.828125 -4.25 C 5.828125 -4.738281 5.78125 -5.179688 5.6875 -5.578125 C 5.59375 -5.984375 5.445312 -6.304688 5.25 -6.546875 C 5.050781 -6.796875 4.796875 -6.921875 4.484375 -6.921875 C 4.234375 -6.929688 4.007812 -6.820312 3.8125 -6.59375 C 3.625 -6.375 3.476562 -6.066406 3.375 -5.671875 C 3.269531 -5.285156 3.21875 -4.835938 3.21875 -4.328125 C 3.21875 -3.523438 3.34375 -2.882812 3.59375 -2.40625 C 3.851562 -1.9375 4.179688 -1.703125 4.578125 -1.703125 Z M 4.578125 -1.703125 "/></g></g></g></g></g><g transform="matrix(1, 0, 0, 1, 18, 55)"><g clip-path="url(#dd84f45035)"><g clip-path="url(#abeb6a31e7)"><g fill="#4c4c4c" fill-opacity="1"><g transform="translate(0.530403, 4.65612)"><g><path d="M 0.203125 -2.765625 L 0.828125 -2.765625 L 0.828125 0 L 0.203125 0 Z M 0.203125 -2.765625 "/></g></g></g></g><g fill="#4c4c4c" fill-opacity="1"><g transform="translate(2.08922, 4.65612)"><g><path d="M 0.203125 -2.765625 L 0.640625 -2.765625 L 1.203125 -1.4375 L 1.203125 -2.765625 L 1.703125 -2.765625 L 1.703125 0 L 1.296875 0 L 0.734375 -1.4375 L 0.734375 0 L 0.203125 0 Z M 0.203125 -2.765625 "/></g></g></g><g fill="#4c4c4c" fill-opacity="1"><g transform="translate(4.536727, 4.65612)"><g><path d="M 0.453125 -2.3125 L 0.03125 -2.3125 L 0.03125 -2.765625 L 1.484375 -2.765625 L 1.484375 -2.3125 L 1.078125 -2.3125 L 1.078125 0 L 0.453125 0 Z M 0.453125 -2.3125 "/></g></g></g><g fill="#4c4c4c" fill-opacity="1"><g transform="translate(6.587741, 4.65612)"><g><path d="M 0.203125 -2.765625 L 1.453125 -2.765625 L 1.453125 -2.359375 L 0.8125 -2.359375 L 0.8125 -1.671875 L 1.296875 -1.671875 L 1.296875 -1.234375 L 0.8125 -1.234375 L 0.8125 -0.40625 L 1.453125 -0.40625 L 1.453125 0 L 0.203125 0 Z M 0.203125 -2.765625 "/></g></g></g><g fill="#4c4c4c" fill-opacity="1"><g transform="translate(8.645592, 4.65612)"><g><path d="M 0.203125 -2.765625 L 0.96875 -2.765625 C 1.269531 -2.765625 1.5 -2.710938 1.65625 -2.609375 C 1.8125 -2.503906 1.890625 -2.316406 1.890625 -2.046875 C 1.890625 -1.859375 1.863281 -1.707031 1.8125 -1.59375 C 1.769531 -1.488281 1.679688 -1.40625 1.546875 -1.34375 L 1.9375 0 L 1.296875 0 L 1 -1.234375 L 0.8125 -1.234375 L 0.8125 0 L 0.203125 0 Z M 0.984375 -1.59375 C 1.109375 -1.59375 1.195312 -1.625 1.25 -1.6875 C 1.300781 -1.757812 1.328125 -1.859375 1.328125 -1.984375 C 1.328125 -2.109375 1.300781 -2.203125 1.25 -2.265625 C 1.207031 -2.328125 1.128906 -2.359375 1.015625 -2.359375 L 0.8125 -2.359375 L 0.8125 -1.59375 Z M 0.984375 -1.59375 "/></g></g></g><g fill="#4c4c4c" fill-opacity="1"><g transform="translate(11.226403, 4.65612)"><g><path d="M 0.203125 -2.765625 L 0.640625 -2.765625 L 1.203125 -1.4375 L 1.203125 -2.765625 L 1.703125 -2.765625 L 1.703125 0 L 1.296875 0 L 0.734375 -1.4375 L 0.734375 0 L 0.203125 0 Z M 0.203125 -2.765625 "/></g></g></g><g fill="#4c4c4c" fill-opacity="1"><g transform="translate(13.67391, 4.65612)"><g><path d="M 0.59375 -2.765625 L 1.296875 -2.765625 L 1.8125 0 L 1.25 0 L 1.15625 -0.578125 L 0.75 -0.578125 L 0.65625 0 L 0.078125 0 Z M 1.09375 -0.953125 L 0.953125 -2.03125 L 0.796875 -0.953125 Z M 1.09375 -0.953125 "/></g></g></g><g fill="#4c4c4c" fill-opacity="1"><g transform="translate(16.087236, 4.65612)"><g><path d="M 0.453125 -2.3125 L 0.03125 -2.3125 L 0.03125 -2.765625 L 1.484375 -2.765625 L 1.484375 -2.3125 L 1.078125 -2.3125 L 1.078125 0 L 0.453125 0 Z M 0.453125 -2.3125 "/></g></g></g><g fill="#4c4c4c" fill-opacity="1"><g transform="translate(18.138251, 4.65612)"><g><path d="M 0.203125 -2.765625 L 0.828125 -2.765625 L 0.828125 0 L 0.203125 0 Z M 0.203125 -2.765625 "/></g></g></g><g fill="#4c4c4c" fill-opacity="1"><g transform="translate(19.697068, 4.65612)"><g><path d="M 1 0.046875 C 0.695312 0.046875 0.484375 -0.03125 0.359375 -0.1875 C 0.234375 -0.34375 0.171875 -0.570312 0.171875 -0.875 L 0.171875 -1.90625 C 0.171875 -2.207031 0.234375 -2.429688 0.359375 -2.578125 C 0.484375 -2.734375 0.695312 -2.8125 1 -2.8125 C 1.300781 -2.8125 1.515625 -2.734375 1.640625 -2.578125 C 1.773438 -2.421875 1.84375 -2.195312 1.84375 -1.90625 L 1.84375 -0.875 C 1.84375 -0.570312 1.773438 -0.34375 1.640625 -0.1875 C 1.515625 -0.03125 1.300781 0.046875 1 0.046875 Z M 1 -0.390625 C 1.082031 -0.390625 1.140625 -0.414062 1.171875 -0.46875 C 1.203125 -0.53125 1.21875 -0.613281 1.21875 -0.71875 L 1.21875 -2.046875 C 1.21875 -2.148438 1.203125 -2.226562 1.171875 -2.28125 C 1.140625 -2.34375 1.082031 -2.375 1 -2.375 C 0.914062 -2.375 0.859375 -2.34375 0.828125 -2.28125 C 0.804688 -2.226562 0.796875 -2.148438 0.796875 -2.046875 L 0.796875 -0.71875 C 0.796875 -0.613281 0.804688 -0.53125 0.828125 -0.46875 C 0.859375 -0.414062 0.914062 -0.390625 1 -0.390625 Z M 1 -0.390625 "/></g></g></g><g fill="#4c4c4c" fill-opacity="1"><g transform="translate(22.230027, 4.65612)"><g><path d="M 0.203125 -2.765625 L 0.640625 -2.765625 L 1.203125 -1.4375 L 1.203125 -2.765625 L 1.703125 -2.765625 L 1.703125 0 L 1.296875 0 L 0.734375 -1.4375 L 0.734375 0 L 0.203125 0 Z M 0.203125 -2.765625 "/></g></g></g><g fill="#4c4c4c" fill-opacity="1"><g transform="translate(24.677533, 4.65612)"><g><path d="M 0.59375 -2.765625 L 1.296875 -2.765625 L 1.8125 0 L 1.25 0 L 1.15625 -0.578125 L 0.75 -0.578125 L 0.65625 0 L 0.078125 0 Z M 1.09375 -0.953125 L 0.953125 -2.03125 L 0.796875 -0.953125 Z M 1.09375 -0.953125 "/></g></g></g><g fill="#4c4c4c" fill-opacity="1"><g transform="translate(27.09086, 4.65612)"><g><path d="M 0.203125 -2.765625 L 0.8125 -2.765625 L 0.8125 -0.40625 L 1.453125 -0.40625 L 1.453125 0 L 0.203125 0 Z M 0.203125 -2.765625 "/></g></g></g><g fill="#4c4c4c" fill-opacity="1"><g transform="translate(29.135038, 4.65612)"><g><path d="M 1.03125 0.609375 C 0.800781 0.609375 0.625 0.53125 0.5 0.375 C 0.382812 0.226562 0.304688 0.0390625 0.265625 -0.1875 C 0.234375 -0.425781 0.21875 -0.722656 0.21875 -1.078125 C 0.21875 -1.453125 0.234375 -1.757812 0.265625 -2 C 0.296875 -2.238281 0.375 -2.429688 0.5 -2.578125 C 0.625 -2.722656 0.800781 -2.796875 1.03125 -2.796875 L 1.03125 -2.40625 C 0.945312 -2.40625 0.882812 -2.351562 0.84375 -2.25 C 0.800781 -2.15625 0.769531 -2.015625 0.75 -1.828125 C 0.726562 -1.640625 0.71875 -1.390625 0.71875 -1.078125 C 0.71875 -0.773438 0.726562 -0.53125 0.75 -0.34375 C 0.769531 -0.15625 0.800781 -0.015625 0.84375 0.078125 C 0.894531 0.171875 0.957031 0.21875 1.03125 0.21875 Z M 1.03125 0.609375 "/></g></g></g><g fill="#4c4c4c" fill-opacity="1"><g transform="translate(30.820321, 4.65612)"><g><path d="M 0.203125 -2.765625 L 0.640625 -2.765625 L 1.203125 -1.4375 L 1.203125 -2.765625 L 1.703125 -2.765625 L 1.703125 0 L 1.296875 0 L 0.734375 -1.4375 L 0.734375 0 L 0.203125 0 Z M 0.203125 -2.765625 "/></g></g></g><g fill="#4c4c4c" fill-opacity="1"><g transform="translate(33.267828, 4.65612)"><g><path d="M 0.203125 -2.765625 L 0.828125 -2.765625 L 0.828125 0 L 0.203125 0 Z M 0.203125 -2.765625 "/></g></g></g><g fill="#4c4c4c" fill-opacity="1"><g transform="translate(34.826646, 4.65612)"><g><path d="M 0.921875 0.046875 C 0.648438 0.046875 0.457031 -0.0351562 0.34375 -0.203125 C 0.226562 -0.367188 0.171875 -0.609375 0.171875 -0.921875 L 0.171875 -1.84375 C 0.171875 -2.15625 0.234375 -2.394531 0.359375 -2.5625 C 0.484375 -2.726562 0.695312 -2.8125 1 -2.8125 C 1.289062 -2.8125 1.5 -2.738281 1.625 -2.59375 C 1.75 -2.457031 1.8125 -2.257812 1.8125 -2 L 1.8125 -1.828125 L 1.21875 -1.828125 L 1.21875 -2.046875 C 1.21875 -2.148438 1.203125 -2.226562 1.171875 -2.28125 C 1.148438 -2.34375 1.09375 -2.375 1 -2.375 C 0.914062 -2.375 0.859375 -2.34375 0.828125 -2.28125 C 0.804688 -2.21875 0.796875 -2.132812 0.796875 -2.03125 L 0.796875 -0.75 C 0.796875 -0.632812 0.8125 -0.546875 0.84375 -0.484375 C 0.875 -0.421875 0.929688 -0.390625 1.015625 -0.390625 C 1.179688 -0.390625 1.265625 -0.507812 1.265625 -0.75 L 1.265625 -1.078125 L 1.015625 -1.078125 L 1.015625 -1.4375 L 1.8125 -1.4375 L 1.8125 0 L 1.40625 0 L 1.375 -0.234375 C 1.289062 -0.046875 1.140625 0.046875 0.921875 0.046875 Z M 0.921875 0.046875 "/></g></g></g><g fill="#4c4c4c" fill-opacity="1"><g transform="translate(37.345931, 4.65612)"><g><path d="M 0.125 0.21875 C 0.195312 0.21875 0.253906 0.171875 0.296875 0.078125 C 0.347656 -0.015625 0.378906 -0.15625 0.390625 -0.34375 C 0.410156 -0.53125 0.421875 -0.773438 0.421875 -1.078125 C 0.421875 -1.390625 0.410156 -1.640625 0.390625 -1.828125 C 0.378906 -2.015625 0.351562 -2.15625 0.3125 -2.25 C 0.269531 -2.351562 0.207031 -2.40625 0.125 -2.40625 L 0.125 -2.796875 C 0.351562 -2.796875 0.53125 -2.722656 0.65625 -2.578125 C 0.78125 -2.429688 0.859375 -2.238281 0.890625 -2 C 0.921875 -1.757812 0.9375 -1.453125 0.9375 -1.078125 C 0.9375 -0.722656 0.914062 -0.425781 0.875 -0.1875 C 0.84375 0.0390625 0.765625 0.226562 0.640625 0.375 C 0.523438 0.53125 0.351562 0.609375 0.125 0.609375 Z M 0.125 0.21875 "/></g></g></g><g fill="#4c4c4c" fill-opacity="1"><g transform="translate(12.392995, 9.335355)"><g><path d="M 0.203125 -2.765625 L 0.8125 -2.765625 L 0.8125 -0.40625 L 1.453125 -0.40625 L 1.453125 0 L 0.203125 0 Z M 0.203125 -2.765625 "/></g></g></g><g fill="#4c4c4c" fill-opacity="1"><g transform="translate(14.437173, 9.335355)"><g><path d="M 0.203125 -2.765625 L 0.828125 -2.765625 L 0.828125 0 L 0.203125 0 Z M 0.203125 -2.765625 "/></g></g></g><g fill="#4c4c4c" fill-opacity="1"><g transform="translate(15.99599, 9.335355)"><g><path d="M 0.25 -2.765625 L 0.90625 -2.765625 L 1.203125 -1.15625 L 1.53125 -2.765625 L 2.171875 -2.765625 L 2.21875 0 L 1.78125 0 L 1.734375 -1.84375 L 1.40625 0 L 1.015625 0 L 0.671875 -1.859375 L 0.640625 0 L 0.1875 0 Z M 0.25 -2.765625 "/></g></g></g><g fill="#4c4c4c" fill-opacity="1"><g transform="translate(18.932278, 9.335355)"><g><path d="M 0.203125 -2.765625 L 0.828125 -2.765625 L 0.828125 0 L 0.203125 0 Z M 0.203125 -2.765625 "/></g></g></g><g fill="#4c4c4c" fill-opacity="1"><g transform="translate(20.491095, 9.335355)"><g><path d="M 0.453125 -2.3125 L 0.03125 -2.3125 L 0.03125 -2.765625 L 1.484375 -2.765625 L 1.484375 -2.3125 L 1.078125 -2.3125 L 1.078125 0 L 0.453125 0 Z M 0.453125 -2.3125 "/></g></g></g><g fill="#4c4c4c" fill-opacity="1"><g transform="translate(22.542109, 9.335355)"><g><path d="M 0.203125 -2.765625 L 1.453125 -2.765625 L 1.453125 -2.359375 L 0.8125 -2.359375 L 0.8125 -1.671875 L 1.296875 -1.671875 L 1.296875 -1.234375 L 0.8125 -1.234375 L 0.8125 -0.40625 L 1.453125 -0.40625 L 1.453125 0 L 0.203125 0 Z M 0.203125 -2.765625 "/></g></g></g><g fill="#4c4c4c" fill-opacity="1"><g transform="translate(24.59996, 9.335355)"><g><path d="M 0.203125 -2.765625 L 0.90625 -2.765625 C 1.144531 -2.765625 1.332031 -2.734375 1.46875 -2.671875 C 1.601562 -2.617188 1.695312 -2.53125 1.75 -2.40625 C 1.8125 -2.28125 1.84375 -2.109375 1.84375 -1.890625 L 1.84375 -0.890625 C 1.84375 -0.671875 1.8125 -0.5 1.75 -0.375 C 1.695312 -0.25 1.601562 -0.15625 1.46875 -0.09375 C 1.332031 -0.03125 1.144531 0 0.90625 0 L 0.203125 0 Z M 0.90625 -0.421875 C 1 -0.421875 1.066406 -0.429688 1.109375 -0.453125 C 1.148438 -0.484375 1.175781 -0.523438 1.1875 -0.578125 C 1.195312 -0.628906 1.203125 -0.703125 1.203125 -0.796875 L 1.203125 -2 C 1.203125 -2.09375 1.195312 -2.160156 1.1875 -2.203125 C 1.175781 -2.253906 1.148438 -2.289062 1.109375 -2.3125 C 1.066406 -2.332031 1 -2.34375 0.90625 -2.34375 L 0.8125 -2.34375 L 0.8125 -0.421875 Z M 0.90625 -0.421875 "/></g></g></g></g></g><g clip-path="url(#9284f267f2)"><path fill="#ffb800" d="M 45.027344 16.082031 C 45.492188 16.316406 45.945312 16.578125 46.378906 16.863281 L 48.835938 15.605469 L 50.214844 16.984375 L 51.589844 18.363281 L 50.335938 20.820312 C 51.269531 22.238281 51.945312 23.839844 52.300781 25.554688 L 54.925781 26.40625 L 54.925781 30.304688 L 52.300781 31.15625 C 51.945312 32.875 51.269531 34.472656 50.335938 35.890625 L 51.59375 38.347656 L 48.835938 41.105469 L 46.378906 39.851562 C 44.960938 40.78125 43.359375 41.457031 41.644531 41.8125 L 40.792969 44.4375 L 36.894531 44.4375 L 36.042969 41.8125 C 34.324219 41.457031 32.726562 40.78125 31.308594 39.851562 L 28.847656 41.105469 L 27.472656 39.726562 L 26.09375 38.351562 L 27.347656 35.890625 C 26.417969 34.472656 25.742188 32.875 25.386719 31.15625 L 22.761719 30.304688 L 22.761719 26.40625 L 25.386719 25.554688 C 25.742188 23.839844 26.417969 22.238281 27.347656 20.820312 L 26.09375 18.363281 L 27.472656 16.984375 L 28.847656 15.605469 L 31.308594 16.863281 C 31.742188 16.578125 32.191406 16.316406 32.65625 16.082031 C 32.253906 16.597656 31.851562 17.109375 31.460938 17.625 C 28.972656 20.925781 27.3125 24.078125 27.3125 28.355469 C 27.3125 34.722656 32.476562 39.886719 38.84375 39.886719 C 45.210938 39.886719 50.371094 34.722656 50.371094 28.355469 C 50.371094 24.078125 48.710938 20.925781 46.222656 17.625 C 45.835938 17.109375 45.433594 16.597656 45.027344 16.082031 " fill-opacity="1" fill-rule="evenodd"/></g><g clip-path="url(#807138ccc5)"><path fill="#4c4c4c" d="M 43.75 36.71875 C 38.890625 36.808594 36.601562 34.777344 35.277344 32.988281 C 32.664062 29.472656 35.085938 24.488281 37.898438 21.753906 C 38.898438 20.789062 39.46875 19.660156 39.75 18.492188 C 40.71875 14.527344 38.390625 10.128906 38.390625 10.128906 C 36.148438 16.886719 29.148438 20.226562 29.148438 28.355469 C 29.148438 33.710938 33.488281 38.050781 38.84375 38.050781 C 40.632812 38.050781 42.308594 37.566406 43.75 36.71875 M 44.6875 28.355469 C 44.6875 33.800781 39.226562 34.953125 35.242188 31.039062 C 35.453125 34.703125 45.089844 39.03125 48.023438 31.636719 C 50.726562 24.8125 44.335938 18.890625 41.003906 13.648438 C 40.886719 15.121094 40.785156 18.082031 41.539062 20.789062 C 43.082031 22.820312 44.3125 24.777344 44.625 27.476562 C 44.660156 27.773438 44.6875 28.054688 44.6875 28.355469 Z M 44.6875 28.355469 " fill-opacity="1" fill-rule="evenodd"/></g><path fill="#4c4c4c" d="M 42.625 25.316406 C 42.625 25.316406 43.9375 28.53125 41.941406 32.089844 C 43.011719 31.203125 43.695312 29.859375 43.695312 28.355469 C 43.695312 27.207031 43.296875 26.148438 42.625 25.316406 " fill-opacity="1" fill-rule="evenodd"/></svg>