<svg xmlns="http://www.w3.org/2000/svg" xmlns:xlink="http://www.w3.org/1999/xlink" width="150" zoomAndPan="magnify" viewBox="0 0 112.5 112.499997" height="150" preserveAspectRatio="xMidYMid meet" version="1.0"><defs><g/><clipPath id="70ae009d96"><path d="M 0.664062 1 L 7 1 L 7 7 L 0.664062 7 Z M 0.664062 1 " clip-rule="nonzero"/></clipPath><clipPath id="91400c1a47"><path d="M 27 0.539062 L 33.875 0.539062 L 33.875 8 L 27 8 Z M 27 0.539062 " clip-rule="nonzero"/></clipPath><clipPath id="438e839c68"><rect x="0" width="34" y="0" height="10"/></clipPath><clipPath id="9603cc3c15"><rect x="0" width="28" y="0" height="8"/></clipPath><clipPath id="e480a5d7b8"><path d="M 44.953125 36 L 67.339844 36 L 67.339844 56 L 44.953125 56 Z M 44.953125 36 " clip-rule="nonzero"/></clipPath><clipPath id="73591d1ed8"><path d="M 49 32.40625 L 63 32.40625 L 63 52 L 49 52 Z M 49 32.40625 " clip-rule="nonzero"/></clipPath></defs><g transform="matrix(1, 0, 0, 1, 39, 58)"><g clip-path="url(#438e839c68)"><g clip-path="url(#70ae009d96)"><g fill="#251818" fill-opacity="1"><g transform="translate(0.744085, 6.91156)"><g><path d="M 0.203125 -5.890625 L 5.296875 -5.890625 L 5.296875 -4.03125 L 3.84375 -4.03125 L 3.84375 -4.78125 L 2.484375 -4.78125 L 2.484375 -3.625 L 4.09375 -3.625 L 4.09375 -2.5 L 2.484375 -2.5 L 2.484375 -1.125 L 3.84375 -1.125 L 3.84375 -1.90625 L 5.296875 -1.90625 L 5.296875 0 L 0.203125 0 L 0.203125 -1.125 L 0.75 -1.125 L 0.75 -4.78125 L 0.203125 -4.78125 Z M 0.203125 -5.890625 "/></g></g></g></g><g fill="#251818" fill-opacity="1"><g transform="translate(6.249837, 6.91156)"><g><path d="M 0.203125 0 L 0.203125 -1.125 L 0.734375 -1.125 L 0.734375 -4.78125 L 0.203125 -4.78125 L 0.203125 -5.890625 L 2.78125 -5.890625 C 3.46875 -5.890625 4.046875 -5.765625 4.515625 -5.515625 C 4.992188 -5.265625 5.359375 -4.921875 5.609375 -4.484375 C 5.859375 -4.054688 5.984375 -3.570312 5.984375 -3.03125 C 5.984375 -2.070312 5.703125 -1.328125 5.140625 -0.796875 C 4.585938 -0.265625 3.789062 0 2.75 0 Z M 2.46875 -1.125 L 2.78125 -1.125 C 3.082031 -1.125 3.320312 -1.207031 3.5 -1.375 C 3.6875 -1.550781 3.820312 -1.78125 3.90625 -2.0625 C 4 -2.351562 4.046875 -2.675781 4.046875 -3.03125 C 4.046875 -3.332031 4 -3.613281 3.90625 -3.875 C 3.820312 -4.144531 3.6875 -4.363281 3.5 -4.53125 C 3.320312 -4.695312 3.082031 -4.78125 2.78125 -4.78125 L 2.46875 -4.78125 Z M 2.46875 -1.125 "/></g></g></g><g fill="#251818" fill-opacity="1"><g transform="translate(12.3205, 6.91156)"><g><path d="M 3.109375 -3.234375 L 3.140625 -3.234375 C 3.160156 -3.316406 3.207031 -3.429688 3.28125 -3.578125 C 3.351562 -3.734375 3.410156 -3.863281 3.453125 -3.96875 L 3.921875 -4.8125 L 3.453125 -4.8125 L 3.453125 -5.890625 L 5.734375 -5.890625 L 5.734375 -4.8125 L 5.265625 -4.8125 L 3.71875 -2.078125 L 3.71875 -1.09375 L 4.1875 -1.09375 L 4.1875 0 L 1.484375 0 L 1.484375 -1.09375 L 1.96875 -1.09375 L 1.96875 -2.09375 L 0.328125 -4.8125 L -0.078125 -4.8125 L -0.078125 -5.890625 L 2.796875 -5.890625 L 2.796875 -4.8125 L 2.359375 -4.8125 L 2.859375 -3.921875 C 2.867188 -3.867188 2.890625 -3.796875 2.921875 -3.703125 C 2.960938 -3.617188 3 -3.53125 3.03125 -3.4375 C 3.070312 -3.351562 3.097656 -3.285156 3.109375 -3.234375 Z M 3.109375 -3.234375 "/></g></g></g><g fill="#282120" fill-opacity="1"><g transform="translate(17.962536, 6.91156)"><g><path d="M 0.390625 -2.578125 L 2.84375 -2.578125 L 2.84375 -1.453125 L 0.390625 -1.453125 Z M 0.390625 -2.578125 "/></g></g></g><g fill="#ffb800" fill-opacity="1"><g transform="translate(21.218296, 6.91156)"><g><path d="M 0.203125 0 L 0.203125 -1.09375 L 0.703125 -1.09375 L 0.703125 -4.8125 L 0.203125 -4.8125 L 0.203125 -5.890625 L 3.359375 -5.890625 C 4.054688 -5.890625 4.570312 -5.765625 4.90625 -5.515625 C 5.25 -5.265625 5.421875 -4.910156 5.421875 -4.453125 C 5.421875 -4.097656 5.363281 -3.820312 5.25 -3.625 C 5.132812 -3.4375 4.914062 -3.273438 4.59375 -3.140625 C 4.894531 -3.054688 5.15625 -2.898438 5.375 -2.671875 C 5.601562 -2.441406 5.71875 -2.125 5.71875 -1.71875 C 5.71875 -1.113281 5.535156 -0.675781 5.171875 -0.40625 C 4.816406 -0.132812 4.234375 0 3.421875 0 Z M 2.453125 -4.78125 L 2.453125 -3.515625 L 2.96875 -3.515625 C 3.1875 -3.515625 3.332031 -3.570312 3.40625 -3.6875 C 3.488281 -3.800781 3.53125 -3.960938 3.53125 -4.171875 C 3.53125 -4.367188 3.476562 -4.519531 3.375 -4.625 C 3.269531 -4.726562 3.140625 -4.78125 2.984375 -4.78125 Z M 2.453125 -1.09375 L 3.125 -1.09375 C 3.300781 -1.09375 3.457031 -1.15625 3.59375 -1.28125 C 3.738281 -1.414062 3.8125 -1.597656 3.8125 -1.828125 C 3.8125 -2.035156 3.75 -2.207031 3.625 -2.34375 C 3.5 -2.488281 3.320312 -2.5625 3.09375 -2.5625 L 2.453125 -2.5625 Z M 2.453125 -1.09375 "/></g></g></g><g clip-path="url(#91400c1a47)"><g fill="#ffb800" fill-opacity="1"><g transform="translate(27.01072, 6.91156)"><g><path d="M 3.140625 0.15625 C 2.554688 0.15625 2.035156 0.0390625 1.578125 -0.1875 C 1.128906 -0.414062 0.773438 -0.757812 0.515625 -1.21875 C 0.253906 -1.6875 0.125 -2.273438 0.125 -2.984375 C 0.125 -3.585938 0.25 -4.117188 0.5 -4.578125 C 0.75 -5.046875 1.097656 -5.410156 1.546875 -5.671875 C 1.992188 -5.929688 2.507812 -6.0625 3.09375 -6.0625 C 3.78125 -6.0625 4.347656 -5.929688 4.796875 -5.671875 C 5.242188 -5.410156 5.570312 -5.046875 5.78125 -4.578125 C 6 -4.109375 6.109375 -3.554688 6.109375 -2.921875 C 6.109375 -2.285156 5.992188 -1.738281 5.765625 -1.28125 C 5.535156 -0.820312 5.195312 -0.46875 4.75 -0.21875 C 4.3125 0.03125 3.773438 0.15625 3.140625 0.15625 Z M 3.140625 -1.171875 C 3.410156 -1.171875 3.617188 -1.332031 3.765625 -1.65625 C 3.921875 -1.976562 4 -2.398438 4 -2.921875 C 4 -3.265625 3.96875 -3.570312 3.90625 -3.84375 C 3.84375 -4.125 3.742188 -4.347656 3.609375 -4.515625 C 3.472656 -4.679688 3.296875 -4.765625 3.078125 -4.765625 C 2.910156 -4.765625 2.757812 -4.6875 2.625 -4.53125 C 2.5 -4.382812 2.394531 -4.175781 2.3125 -3.90625 C 2.238281 -3.632812 2.203125 -3.328125 2.203125 -2.984375 C 2.203125 -2.429688 2.289062 -1.988281 2.46875 -1.65625 C 2.644531 -1.332031 2.867188 -1.171875 3.140625 -1.171875 Z M 3.140625 -1.171875 "/></g></g></g></g></g></g><g transform="matrix(1, 0, 0, 1, 42, 65)"><g clip-path="url(#9603cc3c15)"><g fill="#4c4c4c" fill-opacity="1"><g transform="translate(0.956541, 3.753344)"><g><path d="M 0.140625 -1.890625 L 0.5625 -1.890625 L 0.5625 0 L 0.140625 0 Z M 0.140625 -1.890625 "/></g></g></g><g fill="#4c4c4c" fill-opacity="1"><g transform="translate(2.028472, 3.753344)"><g><path d="M 0.140625 -1.890625 L 0.4375 -1.890625 L 0.828125 -0.984375 L 0.828125 -1.890625 L 1.171875 -1.890625 L 1.171875 0 L 0.890625 0 L 0.5 -0.984375 L 0.5 0 L 0.140625 0 Z M 0.140625 -1.890625 "/></g></g></g><g fill="#4c4c4c" fill-opacity="1"><g transform="translate(3.711515, 3.753344)"><g><path d="M 0.3125 -1.59375 L 0.03125 -1.59375 L 0.03125 -1.890625 L 1.015625 -1.890625 L 1.015625 -1.59375 L 0.734375 -1.59375 L 0.734375 0 L 0.3125 0 Z M 0.3125 -1.59375 "/></g></g></g><g fill="#4c4c4c" fill-opacity="1"><g transform="translate(5.121908, 3.753344)"><g><path d="M 0.140625 -1.890625 L 1 -1.890625 L 1 -1.609375 L 0.5625 -1.609375 L 0.5625 -1.140625 L 0.890625 -1.140625 L 0.890625 -0.84375 L 0.5625 -0.84375 L 0.5625 -0.28125 L 1 -0.28125 L 1 0 L 0.140625 0 Z M 0.140625 -1.890625 "/></g></g></g><g fill="#4c4c4c" fill-opacity="1"><g transform="translate(6.537002, 3.753344)"><g><path d="M 0.140625 -1.890625 L 0.65625 -1.890625 C 0.863281 -1.890625 1.019531 -1.851562 1.125 -1.78125 C 1.238281 -1.707031 1.296875 -1.578125 1.296875 -1.390625 C 1.296875 -1.265625 1.273438 -1.164062 1.234375 -1.09375 C 1.203125 -1.019531 1.144531 -0.960938 1.0625 -0.921875 L 1.328125 0 L 0.890625 0 L 0.671875 -0.84375 L 0.5625 -0.84375 L 0.5625 0 L 0.140625 0 Z M 0.671875 -1.09375 C 0.753906 -1.09375 0.8125 -1.113281 0.84375 -1.15625 C 0.882812 -1.195312 0.90625 -1.265625 0.90625 -1.359375 C 0.90625 -1.441406 0.890625 -1.503906 0.859375 -1.546875 C 0.828125 -1.585938 0.773438 -1.609375 0.703125 -1.609375 L 0.5625 -1.609375 L 0.5625 -1.09375 Z M 0.671875 -1.09375 "/></g></g></g><g fill="#4c4c4c" fill-opacity="1"><g transform="translate(8.311713, 3.753344)"><g><path d="M 0.140625 -1.890625 L 0.4375 -1.890625 L 0.828125 -0.984375 L 0.828125 -1.890625 L 1.171875 -1.890625 L 1.171875 0 L 0.890625 0 L 0.5 -0.984375 L 0.5 0 L 0.140625 0 Z M 0.140625 -1.890625 "/></g></g></g><g fill="#4c4c4c" fill-opacity="1"><g transform="translate(9.994757, 3.753344)"><g><path d="M 0.40625 -1.890625 L 0.890625 -1.890625 L 1.234375 0 L 0.859375 0 L 0.796875 -0.40625 L 0.515625 -0.40625 L 0.4375 0 L 0.046875 0 Z M 0.75 -0.65625 L 0.65625 -1.390625 L 0.546875 -0.65625 Z M 0.75 -0.65625 "/></g></g></g><g fill="#4c4c4c" fill-opacity="1"><g transform="translate(11.654296, 3.753344)"><g><path d="M 0.3125 -1.59375 L 0.03125 -1.59375 L 0.03125 -1.890625 L 1.015625 -1.890625 L 1.015625 -1.59375 L 0.734375 -1.59375 L 0.734375 0 L 0.3125 0 Z M 0.3125 -1.59375 "/></g></g></g><g fill="#4c4c4c" fill-opacity="1"><g transform="translate(13.064689, 3.753344)"><g><path d="M 0.140625 -1.890625 L 0.5625 -1.890625 L 0.5625 0 L 0.140625 0 Z M 0.140625 -1.890625 "/></g></g></g><g fill="#4c4c4c" fill-opacity="1"><g transform="translate(14.13662, 3.753344)"><g><path d="M 0.6875 0.03125 C 0.476562 0.03125 0.328125 -0.0195312 0.234375 -0.125 C 0.148438 -0.226562 0.109375 -0.382812 0.109375 -0.59375 L 0.109375 -1.296875 C 0.109375 -1.503906 0.148438 -1.660156 0.234375 -1.765625 C 0.328125 -1.867188 0.476562 -1.921875 0.6875 -1.921875 C 0.894531 -1.921875 1.039062 -1.867188 1.125 -1.765625 C 1.21875 -1.660156 1.265625 -1.503906 1.265625 -1.296875 L 1.265625 -0.59375 C 1.265625 -0.382812 1.21875 -0.226562 1.125 -0.125 C 1.039062 -0.0195312 0.894531 0.03125 0.6875 0.03125 Z M 0.6875 -0.265625 C 0.738281 -0.265625 0.773438 -0.285156 0.796875 -0.328125 C 0.816406 -0.367188 0.828125 -0.421875 0.828125 -0.484375 L 0.828125 -1.40625 C 0.828125 -1.476562 0.816406 -1.53125 0.796875 -1.5625 C 0.773438 -1.601562 0.738281 -1.625 0.6875 -1.625 C 0.625 -1.625 0.582031 -1.601562 0.5625 -1.5625 C 0.550781 -1.53125 0.546875 -1.476562 0.546875 -1.40625 L 0.546875 -0.484375 C 0.546875 -0.421875 0.550781 -0.367188 0.5625 -0.328125 C 0.582031 -0.285156 0.625 -0.265625 0.6875 -0.265625 Z M 0.6875 -0.265625 "/></g></g></g><g fill="#4c4c4c" fill-opacity="1"><g transform="translate(15.878425, 3.753344)"><g><path d="M 0.140625 -1.890625 L 0.4375 -1.890625 L 0.828125 -0.984375 L 0.828125 -1.890625 L 1.171875 -1.890625 L 1.171875 0 L 0.890625 0 L 0.5 -0.984375 L 0.5 0 L 0.140625 0 Z M 0.140625 -1.890625 "/></g></g></g><g fill="#4c4c4c" fill-opacity="1"><g transform="translate(17.561468, 3.753344)"><g><path d="M 0.40625 -1.890625 L 0.890625 -1.890625 L 1.234375 0 L 0.859375 0 L 0.796875 -0.40625 L 0.515625 -0.40625 L 0.4375 0 L 0.046875 0 Z M 0.75 -0.65625 L 0.65625 -1.390625 L 0.546875 -0.65625 Z M 0.75 -0.65625 "/></g></g></g><g fill="#4c4c4c" fill-opacity="1"><g transform="translate(19.221007, 3.753344)"><g><path d="M 0.140625 -1.890625 L 0.5625 -1.890625 L 0.5625 -0.28125 L 1 -0.28125 L 1 0 L 0.140625 0 Z M 0.140625 -1.890625 "/></g></g></g><g fill="#4c4c4c" fill-opacity="1"><g transform="translate(20.626699, 3.753344)"><g><path d="M 0.703125 0.421875 C 0.546875 0.421875 0.425781 0.367188 0.34375 0.265625 C 0.257812 0.160156 0.203125 0.03125 0.171875 -0.125 C 0.148438 -0.289062 0.140625 -0.492188 0.140625 -0.734375 C 0.140625 -0.992188 0.148438 -1.203125 0.171875 -1.359375 C 0.203125 -1.523438 0.257812 -1.660156 0.34375 -1.765625 C 0.425781 -1.867188 0.546875 -1.921875 0.703125 -1.921875 L 0.703125 -1.65625 C 0.648438 -1.65625 0.609375 -1.617188 0.578125 -1.546875 C 0.546875 -1.484375 0.523438 -1.382812 0.515625 -1.25 C 0.503906 -1.125 0.5 -0.953125 0.5 -0.734375 C 0.5 -0.523438 0.503906 -0.359375 0.515625 -0.234375 C 0.523438 -0.109375 0.546875 -0.015625 0.578125 0.046875 C 0.609375 0.117188 0.648438 0.15625 0.703125 0.15625 Z M 0.703125 0.421875 "/></g></g></g><g fill="#4c4c4c" fill-opacity="1"><g transform="translate(21.785595, 3.753344)"><g><path d="M 0.140625 -1.890625 L 0.4375 -1.890625 L 0.828125 -0.984375 L 0.828125 -1.890625 L 1.171875 -1.890625 L 1.171875 0 L 0.890625 0 L 0.5 -0.984375 L 0.5 0 L 0.140625 0 Z M 0.140625 -1.890625 "/></g></g></g><g fill="#4c4c4c" fill-opacity="1"><g transform="translate(23.468638, 3.753344)"><g><path d="M 0.140625 -1.890625 L 0.5625 -1.890625 L 0.5625 0 L 0.140625 0 Z M 0.140625 -1.890625 "/></g></g></g><g fill="#4c4c4c" fill-opacity="1"><g transform="translate(24.540569, 3.753344)"><g><path d="M 0.640625 0.03125 C 0.453125 0.03125 0.316406 -0.0234375 0.234375 -0.140625 C 0.148438 -0.253906 0.109375 -0.414062 0.109375 -0.625 L 0.109375 -1.265625 C 0.109375 -1.484375 0.148438 -1.644531 0.234375 -1.75 C 0.328125 -1.863281 0.476562 -1.921875 0.6875 -1.921875 C 0.882812 -1.921875 1.023438 -1.875 1.109375 -1.78125 C 1.191406 -1.6875 1.234375 -1.550781 1.234375 -1.375 L 1.234375 -1.25 L 0.828125 -1.25 L 0.828125 -1.40625 C 0.828125 -1.476562 0.816406 -1.53125 0.796875 -1.5625 C 0.785156 -1.601562 0.75 -1.625 0.6875 -1.625 C 0.625 -1.625 0.582031 -1.601562 0.5625 -1.5625 C 0.550781 -1.519531 0.546875 -1.460938 0.546875 -1.390625 L 0.546875 -0.515625 C 0.546875 -0.429688 0.554688 -0.367188 0.578125 -0.328125 C 0.597656 -0.285156 0.640625 -0.265625 0.703125 -0.265625 C 0.804688 -0.265625 0.859375 -0.347656 0.859375 -0.515625 L 0.859375 -0.734375 L 0.6875 -0.734375 L 0.6875 -0.984375 L 1.234375 -0.984375 L 1.234375 0 L 0.96875 0 L 0.9375 -0.15625 C 0.882812 -0.03125 0.785156 0.03125 0.640625 0.03125 Z M 0.640625 0.03125 "/></g></g></g><g fill="#4c4c4c" fill-opacity="1"><g transform="translate(26.272972, 3.753344)"><g><path d="M 0.078125 0.15625 C 0.128906 0.15625 0.171875 0.117188 0.203125 0.046875 C 0.234375 -0.015625 0.253906 -0.109375 0.265625 -0.234375 C 0.285156 -0.359375 0.296875 -0.53125 0.296875 -0.75 C 0.296875 -0.957031 0.289062 -1.125 0.28125 -1.25 C 0.269531 -1.382812 0.25 -1.484375 0.21875 -1.546875 C 0.1875 -1.617188 0.140625 -1.65625 0.078125 -1.65625 L 0.078125 -1.921875 C 0.242188 -1.921875 0.367188 -1.867188 0.453125 -1.765625 C 0.535156 -1.671875 0.585938 -1.539062 0.609375 -1.375 C 0.628906 -1.207031 0.640625 -1 0.640625 -0.75 C 0.640625 -0.5 0.628906 -0.289062 0.609375 -0.125 C 0.585938 0.03125 0.535156 0.160156 0.453125 0.265625 C 0.367188 0.367188 0.242188 0.421875 0.078125 0.421875 Z M 0.078125 0.15625 "/></g></g></g><g fill="#4c4c4c" fill-opacity="1"><g transform="translate(9.113927, 6.97105)"><g><path d="M 0.140625 -1.890625 L 0.5625 -1.890625 L 0.5625 -0.28125 L 1 -0.28125 L 1 0 L 0.140625 0 Z M 0.140625 -1.890625 "/></g></g></g><g fill="#4c4c4c" fill-opacity="1"><g transform="translate(10.519619, 6.97105)"><g><path d="M 0.140625 -1.890625 L 0.5625 -1.890625 L 0.5625 0 L 0.140625 0 Z M 0.140625 -1.890625 "/></g></g></g><g fill="#4c4c4c" fill-opacity="1"><g transform="translate(11.59155, 6.97105)"><g><path d="M 0.171875 -1.890625 L 0.609375 -1.890625 L 0.828125 -0.796875 L 1.046875 -1.890625 L 1.484375 -1.890625 L 1.515625 0 L 1.21875 0 L 1.1875 -1.265625 L 0.96875 0 L 0.703125 0 L 0.46875 -1.265625 L 0.4375 0 L 0.140625 0 Z M 0.171875 -1.890625 "/></g></g></g><g fill="#4c4c4c" fill-opacity="1"><g transform="translate(13.610706, 6.97105)"><g><path d="M 0.140625 -1.890625 L 0.5625 -1.890625 L 0.5625 0 L 0.140625 0 Z M 0.140625 -1.890625 "/></g></g></g><g fill="#4c4c4c" fill-opacity="1"><g transform="translate(14.682637, 6.97105)"><g><path d="M 0.3125 -1.59375 L 0.03125 -1.59375 L 0.03125 -1.890625 L 1.015625 -1.890625 L 1.015625 -1.59375 L 0.734375 -1.59375 L 0.734375 0 L 0.3125 0 Z M 0.3125 -1.59375 "/></g></g></g><g fill="#4c4c4c" fill-opacity="1"><g transform="translate(16.09303, 6.97105)"><g><path d="M 0.140625 -1.890625 L 1 -1.890625 L 1 -1.609375 L 0.5625 -1.609375 L 0.5625 -1.140625 L 0.890625 -1.140625 L 0.890625 -0.84375 L 0.5625 -0.84375 L 0.5625 -0.28125 L 1 -0.28125 L 1 0 L 0.140625 0 Z M 0.140625 -1.890625 "/></g></g></g><g fill="#4c4c4c" fill-opacity="1"><g transform="translate(17.508124, 6.97105)"><g><path d="M 0.140625 -1.890625 L 0.625 -1.890625 C 0.78125 -1.890625 0.90625 -1.867188 1 -1.828125 C 1.09375 -1.796875 1.160156 -1.734375 1.203125 -1.640625 C 1.242188 -1.554688 1.265625 -1.441406 1.265625 -1.296875 L 1.265625 -0.609375 C 1.265625 -0.460938 1.242188 -0.34375 1.203125 -0.25 C 1.160156 -0.164062 1.09375 -0.101562 1 -0.0625 C 0.914062 -0.0195312 0.789062 0 0.625 0 L 0.140625 0 Z M 0.625 -0.296875 C 0.6875 -0.296875 0.726562 -0.300781 0.75 -0.3125 C 0.78125 -0.332031 0.800781 -0.359375 0.8125 -0.390625 C 0.820312 -0.421875 0.828125 -0.472656 0.828125 -0.546875 L 0.828125 -1.375 C 0.828125 -1.4375 0.820312 -1.484375 0.8125 -1.515625 C 0.800781 -1.546875 0.78125 -1.566406 0.75 -1.578125 C 0.726562 -1.597656 0.6875 -1.609375 0.625 -1.609375 L 0.5625 -1.609375 L 0.5625 -0.296875 Z M 0.625 -0.296875 "/></g></g></g></g></g><g clip-path="url(#e480a5d7b8)"><path fill="#ffb800" d="M 60.253906 36.496094 C 60.574219 36.660156 60.882812 36.839844 61.179688 37.035156 L 62.871094 36.171875 L 64.765625 38.066406 L 63.902344 39.757812 C 64.542969 40.730469 65.007812 41.832031 65.253906 43.011719 L 67.058594 43.597656 L 67.058594 46.277344 L 65.253906 46.863281 C 65.007812 48.042969 64.542969 49.144531 63.902344 50.117188 L 64.765625 51.808594 L 62.871094 53.703125 L 61.179688 52.839844 C 60.207031 53.480469 59.105469 53.945312 57.925781 54.191406 L 57.339844 55.996094 L 54.660156 55.996094 L 54.078125 54.191406 C 52.894531 53.945312 51.796875 53.480469 50.820312 52.839844 L 49.128906 53.703125 L 48.183594 52.753906 L 47.234375 51.808594 L 48.097656 50.117188 C 47.457031 49.144531 46.992188 48.042969 46.75 46.863281 L 44.945312 46.277344 L 44.945312 43.597656 L 46.75 43.011719 C 46.992188 41.832031 47.457031 40.730469 48.097656 39.757812 L 47.234375 38.066406 L 48.183594 37.121094 L 49.128906 36.171875 L 50.820312 37.035156 C 51.117188 36.839844 51.429688 36.660156 51.75 36.496094 C 51.472656 36.851562 51.195312 37.203125 50.925781 37.558594 C 49.214844 39.828125 48.074219 41.996094 48.074219 44.9375 C 48.074219 49.316406 51.625 52.863281 56 52.863281 C 60.378906 52.863281 63.929688 49.316406 63.929688 44.9375 C 63.929688 41.996094 62.785156 39.828125 61.074219 37.558594 C 60.808594 37.203125 60.53125 36.851562 60.253906 36.496094 " fill-opacity="1" fill-rule="evenodd"/></g><g clip-path="url(#73591d1ed8)"><path fill="#4c4c4c" d="M 59.375 50.6875 C 56.035156 50.75 54.460938 49.351562 53.550781 48.125 C 51.753906 45.707031 53.417969 42.277344 55.351562 40.398438 C 56.039062 39.734375 56.429688 38.957031 56.625 38.15625 C 57.289062 35.429688 55.6875 32.40625 55.6875 32.40625 C 54.148438 37.050781 49.335938 39.347656 49.335938 44.9375 C 49.335938 48.617188 52.320312 51.601562 56 51.601562 C 57.230469 51.601562 58.386719 51.269531 59.375 50.6875 M 60.019531 44.9375 C 60.019531 48.679688 56.265625 49.472656 53.527344 46.78125 C 53.671875 49.300781 60.296875 52.277344 62.3125 47.195312 C 64.171875 42.5 59.777344 38.429688 57.488281 34.828125 C 57.40625 35.839844 57.335938 37.875 57.855469 39.734375 C 58.917969 41.128906 59.761719 42.476562 59.976562 44.332031 C 60.003906 44.535156 60.019531 44.730469 60.019531 44.9375 Z M 60.019531 44.9375 " fill-opacity="1" fill-rule="evenodd"/></g><path fill="#4c4c4c" d="M 58.601562 42.847656 C 58.601562 42.847656 59.503906 45.058594 58.128906 47.503906 C 58.867188 46.894531 59.335938 45.96875 59.335938 44.9375 C 59.335938 44.144531 59.0625 43.417969 58.601562 42.847656 " fill-opacity="1" fill-rule="evenodd"/></svg>