<svg xmlns="http://www.w3.org/2000/svg" xmlns:xlink="http://www.w3.org/1999/xlink" width="150" zoomAndPan="magnify" viewBox="0 0 112.5 74.999997" height="100" preserveAspectRatio="xMidYMid meet" version="1.0"><defs><g/><clipPath id="0193999dd5"><rect x="0" width="61" y="0" height="16"/></clipPath><clipPath id="2ecd02b4e1"><rect x="0" width="49" y="0" height="13"/></clipPath><clipPath id="a05709a836"><path d="M 36.351562 8 L 75.902344 8 L 75.902344 43.800781 L 36.351562 43.800781 Z M 36.351562 8 " clip-rule="nonzero"/></clipPath><clipPath id="ccf9097546"><path d="M 44 1.988281 L 69 1.988281 L 69 37 L 44 37 Z M 44 1.988281 " clip-rule="nonzero"/></clipPath></defs><g transform="matrix(1, 0, 0, 1, 26, 48)"><g clip-path="url(#0193999dd5)"><g fill="#251818" fill-opacity="1"><g transform="translate(1.085877, 11.802277)"><g><path d="M 0.375 -10.484375 L 9.421875 -10.484375 L 9.421875 -7.171875 L 6.828125 -7.171875 L 6.828125 -8.5 L 4.421875 -8.5 L 4.421875 -6.4375 L 7.28125 -6.4375 L 7.28125 -4.4375 L 4.421875 -4.4375 L 4.421875 -2 L 6.828125 -2 L 6.828125 -3.390625 L 9.421875 -3.390625 L 9.421875 0 L 0.375 0 L 0.375 -2 L 1.3125 -2 L 1.3125 -8.5 L 0.375 -8.5 Z M 0.375 -10.484375 "/></g></g></g><g fill="#251818" fill-opacity="1"><g transform="translate(10.878574, 11.802277)"><g><path d="M 0.375 0 L 0.375 -2 L 1.3125 -2 L 1.3125 -8.5 L 0.375 -8.5 L 0.375 -10.484375 L 4.953125 -10.484375 C 6.160156 -10.484375 7.1875 -10.257812 8.03125 -9.8125 C 8.882812 -9.363281 9.535156 -8.753906 9.984375 -7.984375 C 10.429688 -7.210938 10.65625 -6.347656 10.65625 -5.390625 C 10.65625 -3.671875 10.15625 -2.34375 9.15625 -1.40625 C 8.164062 -0.46875 6.742188 0 4.890625 0 Z M 4.375 -2 L 4.953125 -2 C 5.484375 -2.007812 5.910156 -2.164062 6.234375 -2.46875 C 6.566406 -2.769531 6.8125 -3.175781 6.96875 -3.6875 C 7.125 -4.195312 7.203125 -4.765625 7.203125 -5.390625 C 7.203125 -5.921875 7.125 -6.425781 6.96875 -6.90625 C 6.8125 -7.382812 6.566406 -7.769531 6.234375 -8.0625 C 5.910156 -8.351562 5.484375 -8.5 4.953125 -8.5 L 4.375 -8.5 Z M 4.375 -2 "/></g></g></g><g fill="#251818" fill-opacity="1"><g transform="translate(21.676038, 11.802277)"><g><path d="M 5.53125 -5.765625 L 5.59375 -5.765625 C 5.625 -5.910156 5.703125 -6.113281 5.828125 -6.375 C 5.960938 -6.644531 6.070312 -6.867188 6.15625 -7.046875 L 6.96875 -8.5625 L 6.15625 -8.5625 L 6.15625 -10.484375 L 10.1875 -10.484375 L 10.1875 -8.5625 L 9.375 -8.5625 L 6.59375 -3.6875 L 6.59375 -1.953125 L 7.4375 -1.953125 L 7.4375 0 L 2.640625 0 L 2.640625 -1.953125 L 3.5 -1.953125 L 3.5 -3.71875 L 0.578125 -8.5625 L -0.15625 -8.5625 L -0.15625 -10.484375 L 4.984375 -10.484375 L 4.984375 -8.5625 L 4.203125 -8.5625 L 5.0625 -6.96875 C 5.09375 -6.882812 5.140625 -6.757812 5.203125 -6.59375 C 5.273438 -6.4375 5.34375 -6.28125 5.40625 -6.125 C 5.46875 -5.96875 5.507812 -5.847656 5.53125 -5.765625 Z M 5.53125 -5.765625 "/></g></g></g><g fill="#282120" fill-opacity="1"><g transform="translate(31.711136, 11.802277)"><g><path d="M 0.703125 -4.578125 L 5.0625 -4.578125 L 5.0625 -2.578125 L 0.703125 -2.578125 Z M 0.703125 -4.578125 "/></g></g></g><g fill="#ffb800" fill-opacity="1"><g transform="translate(37.501929, 11.802277)"><g><path d="M 0.375 0 L 0.375 -1.953125 L 1.25 -1.953125 L 1.25 -8.546875 L 0.375 -8.546875 L 0.375 -10.484375 L 5.96875 -10.484375 C 7.21875 -10.484375 8.140625 -10.257812 8.734375 -9.8125 C 9.335938 -9.375 9.640625 -8.742188 9.640625 -7.921875 C 9.640625 -7.285156 9.535156 -6.796875 9.328125 -6.453125 C 9.117188 -6.109375 8.734375 -5.820312 8.171875 -5.59375 C 8.710938 -5.445312 9.175781 -5.164062 9.5625 -4.75 C 9.957031 -4.34375 10.15625 -3.773438 10.15625 -3.046875 C 10.15625 -1.984375 9.835938 -1.207031 9.203125 -0.71875 C 8.566406 -0.238281 7.523438 0 6.078125 0 Z M 4.34375 -8.5 L 4.34375 -6.25 L 5.265625 -6.25 C 5.660156 -6.25 5.925781 -6.351562 6.0625 -6.5625 C 6.207031 -6.769531 6.28125 -7.050781 6.28125 -7.40625 C 6.28125 -7.757812 6.1875 -8.03125 6 -8.21875 C 5.820312 -8.40625 5.585938 -8.5 5.296875 -8.5 Z M 4.34375 -1.953125 L 5.546875 -1.953125 C 5.867188 -1.953125 6.148438 -2.066406 6.390625 -2.296875 C 6.640625 -2.523438 6.765625 -2.835938 6.765625 -3.234375 C 6.765625 -3.617188 6.65625 -3.9375 6.4375 -4.1875 C 6.226562 -4.4375 5.914062 -4.5625 5.5 -4.5625 L 4.34375 -4.5625 Z M 4.34375 -1.953125 "/></g></g></g><g fill="#ffb800" fill-opacity="1"><g transform="translate(47.804509, 11.802277)"><g><path d="M 5.59375 0.265625 C 4.550781 0.265625 3.625 0.0664062 2.8125 -0.328125 C 2.007812 -0.734375 1.375 -1.347656 0.90625 -2.171875 C 0.445312 -3.003906 0.21875 -4.046875 0.21875 -5.296875 C 0.21875 -6.378906 0.441406 -7.332031 0.890625 -8.15625 C 1.335938 -8.976562 1.957031 -9.617188 2.75 -10.078125 C 3.539062 -10.535156 4.453125 -10.765625 5.484375 -10.765625 C 6.710938 -10.765625 7.722656 -10.535156 8.515625 -10.078125 C 9.316406 -9.617188 9.910156 -8.972656 10.296875 -8.140625 C 10.679688 -7.304688 10.875 -6.320312 10.875 -5.1875 C 10.875 -4.0625 10.664062 -3.085938 10.25 -2.265625 C 9.84375 -1.453125 9.25 -0.828125 8.46875 -0.390625 C 7.6875 0.046875 6.726562 0.265625 5.59375 0.265625 Z M 5.59375 -2.078125 C 6.0625 -2.078125 6.429688 -2.363281 6.703125 -2.9375 C 6.984375 -3.507812 7.125 -4.257812 7.125 -5.1875 C 7.125 -5.800781 7.066406 -6.351562 6.953125 -6.84375 C 6.835938 -7.332031 6.660156 -7.722656 6.421875 -8.015625 C 6.179688 -8.304688 5.863281 -8.453125 5.46875 -8.453125 C 5.175781 -8.460938 4.910156 -8.332031 4.671875 -8.0625 C 4.429688 -7.800781 4.25 -7.425781 4.125 -6.9375 C 4 -6.457031 3.9375 -5.910156 3.9375 -5.296875 C 3.9375 -4.316406 4.09375 -3.535156 4.40625 -2.953125 C 4.71875 -2.367188 5.113281 -2.078125 5.59375 -2.078125 Z M 5.59375 -2.078125 "/></g></g></g></g></g><g transform="matrix(1, 0, 0, 1, 32, 61)"><g clip-path="url(#2ecd02b4e1)"><g fill="#4c4c4c" fill-opacity="1"><g transform="translate(0.799648, 5.635396)"><g><path d="M 0.25 -3.390625 L 1 -3.390625 L 1 0 L 0.25 0 Z M 0.25 -3.390625 "/></g></g></g><g fill="#4c4c4c" fill-opacity="1"><g transform="translate(2.706217, 5.635396)"><g><path d="M 0.25 -3.390625 L 0.78125 -3.390625 L 1.46875 -1.765625 L 1.46875 -3.390625 L 2.09375 -3.390625 L 2.09375 0 L 1.59375 0 L 0.890625 -1.765625 L 0.890625 0 L 0.25 0 Z M 0.25 -3.390625 "/></g></g></g><g fill="#4c4c4c" fill-opacity="1"><g transform="translate(5.699729, 5.635396)"><g><path d="M 0.5625 -2.828125 L 0.046875 -2.828125 L 0.046875 -3.390625 L 1.8125 -3.390625 L 1.8125 -2.828125 L 1.3125 -2.828125 L 1.3125 0 L 0.5625 0 Z M 0.5625 -2.828125 "/></g></g></g><g fill="#4c4c4c" fill-opacity="1"><g transform="translate(8.208297, 5.635396)"><g><path d="M 0.25 -3.390625 L 1.78125 -3.390625 L 1.78125 -2.875 L 1 -2.875 L 1 -2.046875 L 1.59375 -2.046875 L 1.59375 -1.515625 L 1 -1.515625 L 1 -0.5 L 1.78125 -0.5 L 1.78125 0 L 0.25 0 Z M 0.25 -3.390625 "/></g></g></g><g fill="#4c4c4c" fill-opacity="1"><g transform="translate(10.725226, 5.635396)"><g><path d="M 0.25 -3.390625 L 1.1875 -3.390625 C 1.550781 -3.390625 1.828125 -3.320312 2.015625 -3.1875 C 2.210938 -3.0625 2.3125 -2.832031 2.3125 -2.5 C 2.3125 -2.269531 2.28125 -2.085938 2.21875 -1.953125 C 2.164062 -1.816406 2.054688 -1.710938 1.890625 -1.640625 L 2.359375 0 L 1.59375 0 L 1.21875 -1.515625 L 1 -1.515625 L 1 0 L 0.25 0 Z M 1.203125 -1.953125 C 1.359375 -1.953125 1.460938 -1.988281 1.515625 -2.0625 C 1.578125 -2.144531 1.609375 -2.265625 1.609375 -2.421875 C 1.609375 -2.578125 1.582031 -2.691406 1.53125 -2.765625 C 1.476562 -2.847656 1.382812 -2.890625 1.25 -2.890625 L 1 -2.890625 L 1 -1.953125 Z M 1.203125 -1.953125 "/></g></g></g><g fill="#4c4c4c" fill-opacity="1"><g transform="translate(13.881782, 5.635396)"><g><path d="M 0.25 -3.390625 L 0.78125 -3.390625 L 1.46875 -1.765625 L 1.46875 -3.390625 L 2.09375 -3.390625 L 2.09375 0 L 1.59375 0 L 0.890625 -1.765625 L 0.890625 0 L 0.25 0 Z M 0.25 -3.390625 "/></g></g></g><g fill="#4c4c4c" fill-opacity="1"><g transform="translate(16.875294, 5.635396)"><g><path d="M 0.734375 -3.390625 L 1.578125 -3.390625 L 2.21875 0 L 1.53125 0 L 1.40625 -0.71875 L 0.90625 -0.71875 L 0.796875 0 L 0.09375 0 Z M 1.34375 -1.171875 L 1.15625 -2.484375 L 0.984375 -1.171875 Z M 1.34375 -1.171875 "/></g></g></g><g fill="#4c4c4c" fill-opacity="1"><g transform="translate(19.827001, 5.635396)"><g><path d="M 0.5625 -2.828125 L 0.046875 -2.828125 L 0.046875 -3.390625 L 1.8125 -3.390625 L 1.8125 -2.828125 L 1.3125 -2.828125 L 1.3125 0 L 0.5625 0 Z M 0.5625 -2.828125 "/></g></g></g><g fill="#4c4c4c" fill-opacity="1"><g transform="translate(22.335569, 5.635396)"><g><path d="M 0.25 -3.390625 L 1 -3.390625 L 1 0 L 0.25 0 Z M 0.25 -3.390625 "/></g></g></g><g fill="#4c4c4c" fill-opacity="1"><g transform="translate(24.242137, 5.635396)"><g><path d="M 1.21875 0.046875 C 0.851562 0.046875 0.59375 -0.046875 0.4375 -0.234375 C 0.28125 -0.421875 0.203125 -0.695312 0.203125 -1.0625 L 0.203125 -2.328125 C 0.203125 -2.691406 0.28125 -2.96875 0.4375 -3.15625 C 0.59375 -3.34375 0.851562 -3.4375 1.21875 -3.4375 C 1.59375 -3.4375 1.859375 -3.34375 2.015625 -3.15625 C 2.171875 -2.96875 2.25 -2.691406 2.25 -2.328125 L 2.25 -1.0625 C 2.25 -0.695312 2.171875 -0.421875 2.015625 -0.234375 C 1.859375 -0.046875 1.59375 0.046875 1.21875 0.046875 Z M 1.21875 -0.484375 C 1.320312 -0.484375 1.390625 -0.515625 1.421875 -0.578125 C 1.460938 -0.648438 1.484375 -0.75 1.484375 -0.875 L 1.484375 -2.515625 C 1.484375 -2.640625 1.460938 -2.734375 1.421875 -2.796875 C 1.390625 -2.867188 1.320312 -2.90625 1.21875 -2.90625 C 1.125 -2.90625 1.054688 -2.867188 1.015625 -2.796875 C 0.984375 -2.734375 0.96875 -2.640625 0.96875 -2.515625 L 0.96875 -0.875 C 0.96875 -0.75 0.984375 -0.648438 1.015625 -0.578125 C 1.046875 -0.515625 1.113281 -0.484375 1.21875 -0.484375 Z M 1.21875 -0.484375 "/></g></g></g><g fill="#4c4c4c" fill-opacity="1"><g transform="translate(27.340165, 5.635396)"><g><path d="M 0.25 -3.390625 L 0.78125 -3.390625 L 1.46875 -1.765625 L 1.46875 -3.390625 L 2.09375 -3.390625 L 2.09375 0 L 1.59375 0 L 0.890625 -1.765625 L 0.890625 0 L 0.25 0 Z M 0.25 -3.390625 "/></g></g></g><g fill="#4c4c4c" fill-opacity="1"><g transform="translate(30.333677, 5.635396)"><g><path d="M 0.734375 -3.390625 L 1.578125 -3.390625 L 2.21875 0 L 1.53125 0 L 1.40625 -0.71875 L 0.90625 -0.71875 L 0.796875 0 L 0.09375 0 Z M 1.34375 -1.171875 L 1.15625 -2.484375 L 0.984375 -1.171875 Z M 1.34375 -1.171875 "/></g></g></g><g fill="#4c4c4c" fill-opacity="1"><g transform="translate(33.285384, 5.635396)"><g><path d="M 0.25 -3.390625 L 1 -3.390625 L 1 -0.5 L 1.78125 -0.5 L 1.78125 0 L 0.25 0 Z M 0.25 -3.390625 "/></g></g></g><g fill="#4c4c4c" fill-opacity="1"><g transform="translate(35.78559, 5.635396)"><g><path d="M 1.265625 0.75 C 0.972656 0.75 0.753906 0.65625 0.609375 0.46875 C 0.460938 0.289062 0.367188 0.0546875 0.328125 -0.234375 C 0.285156 -0.523438 0.265625 -0.890625 0.265625 -1.328125 C 0.265625 -1.785156 0.285156 -2.160156 0.328125 -2.453125 C 0.367188 -2.742188 0.460938 -2.976562 0.609375 -3.15625 C 0.753906 -3.332031 0.972656 -3.421875 1.265625 -3.421875 L 1.265625 -2.953125 C 1.160156 -2.953125 1.082031 -2.890625 1.03125 -2.765625 C 0.976562 -2.640625 0.941406 -2.460938 0.921875 -2.234375 C 0.898438 -2.003906 0.890625 -1.703125 0.890625 -1.328125 C 0.890625 -0.953125 0.898438 -0.648438 0.921875 -0.421875 C 0.941406 -0.191406 0.976562 -0.0195312 1.03125 0.09375 C 1.09375 0.207031 1.171875 0.265625 1.265625 0.265625 Z M 1.265625 0.75 "/></g></g></g><g fill="#4c4c4c" fill-opacity="1"><g transform="translate(37.846838, 5.635396)"><g><path d="M 0.25 -3.390625 L 0.78125 -3.390625 L 1.46875 -1.765625 L 1.46875 -3.390625 L 2.09375 -3.390625 L 2.09375 0 L 1.59375 0 L 0.890625 -1.765625 L 0.890625 0 L 0.25 0 Z M 0.25 -3.390625 "/></g></g></g><g fill="#4c4c4c" fill-opacity="1"><g transform="translate(40.84035, 5.635396)"><g><path d="M 0.25 -3.390625 L 1 -3.390625 L 1 0 L 0.25 0 Z M 0.25 -3.390625 "/></g></g></g><g fill="#4c4c4c" fill-opacity="1"><g transform="translate(42.746918, 5.635396)"><g><path d="M 1.140625 0.046875 C 0.796875 0.046875 0.550781 -0.0507812 0.40625 -0.25 C 0.269531 -0.457031 0.203125 -0.75 0.203125 -1.125 L 0.203125 -2.265625 C 0.203125 -2.640625 0.28125 -2.925781 0.4375 -3.125 C 0.59375 -3.332031 0.851562 -3.4375 1.21875 -3.4375 C 1.570312 -3.4375 1.828125 -3.347656 1.984375 -3.171875 C 2.140625 -3.003906 2.21875 -2.765625 2.21875 -2.453125 L 2.21875 -2.234375 L 1.484375 -2.234375 L 1.484375 -2.5 C 1.484375 -2.632812 1.46875 -2.734375 1.4375 -2.796875 C 1.40625 -2.867188 1.335938 -2.90625 1.234375 -2.90625 C 1.117188 -2.90625 1.046875 -2.867188 1.015625 -2.796875 C 0.984375 -2.722656 0.96875 -2.617188 0.96875 -2.484375 L 0.96875 -0.90625 C 0.96875 -0.78125 0.988281 -0.675781 1.03125 -0.59375 C 1.070312 -0.519531 1.144531 -0.484375 1.25 -0.484375 C 1.445312 -0.484375 1.546875 -0.628906 1.546875 -0.921875 L 1.546875 -1.3125 L 1.234375 -1.3125 L 1.234375 -1.765625 L 2.21875 -1.765625 L 2.21875 0 L 1.71875 0 L 1.6875 -0.28125 C 1.582031 -0.0625 1.398438 0.046875 1.140625 0.046875 Z M 1.140625 0.046875 "/></g></g></g><g fill="#4c4c4c" fill-opacity="1"><g transform="translate(45.828222, 5.635396)"><g><path d="M 0.140625 0.265625 C 0.242188 0.265625 0.320312 0.207031 0.375 0.09375 C 0.425781 -0.0195312 0.460938 -0.191406 0.484375 -0.421875 C 0.515625 -0.648438 0.53125 -0.953125 0.53125 -1.328125 C 0.53125 -1.703125 0.519531 -2.003906 0.5 -2.234375 C 0.476562 -2.472656 0.4375 -2.648438 0.375 -2.765625 C 0.320312 -2.890625 0.242188 -2.953125 0.140625 -2.953125 L 0.140625 -3.421875 C 0.429688 -3.421875 0.648438 -3.332031 0.796875 -3.15625 C 0.953125 -2.976562 1.050781 -2.742188 1.09375 -2.453125 C 1.132812 -2.160156 1.15625 -1.785156 1.15625 -1.328125 C 1.15625 -0.890625 1.128906 -0.523438 1.078125 -0.234375 C 1.035156 0.0546875 0.941406 0.289062 0.796875 0.46875 C 0.648438 0.65625 0.429688 0.75 0.140625 0.75 Z M 0.140625 0.265625 "/></g></g></g><g fill="#4c4c4c" fill-opacity="1"><g transform="translate(15.308624, 11.358505)"><g><path d="M 0.25 -3.390625 L 1 -3.390625 L 1 -0.5 L 1.78125 -0.5 L 1.78125 0 L 0.25 0 Z M 0.25 -3.390625 "/></g></g></g><g fill="#4c4c4c" fill-opacity="1"><g transform="translate(17.80883, 11.358505)"><g><path d="M 0.25 -3.390625 L 1 -3.390625 L 1 0 L 0.25 0 Z M 0.25 -3.390625 "/></g></g></g><g fill="#4c4c4c" fill-opacity="1"><g transform="translate(19.715399, 11.358505)"><g><path d="M 0.296875 -3.390625 L 1.09375 -3.390625 L 1.46875 -1.421875 L 1.875 -3.390625 L 2.65625 -3.390625 L 2.703125 0 L 2.171875 0 L 2.109375 -2.25 L 1.71875 0 L 1.25 0 L 0.828125 -2.28125 L 0.78125 0 L 0.234375 0 Z M 0.296875 -3.390625 "/></g></g></g><g fill="#4c4c4c" fill-opacity="1"><g transform="translate(23.306732, 11.358505)"><g><path d="M 0.25 -3.390625 L 1 -3.390625 L 1 0 L 0.25 0 Z M 0.25 -3.390625 "/></g></g></g><g fill="#4c4c4c" fill-opacity="1"><g transform="translate(25.213301, 11.358505)"><g><path d="M 0.5625 -2.828125 L 0.046875 -2.828125 L 0.046875 -3.390625 L 1.8125 -3.390625 L 1.8125 -2.828125 L 1.3125 -2.828125 L 1.3125 0 L 0.5625 0 Z M 0.5625 -2.828125 "/></g></g></g><g fill="#4c4c4c" fill-opacity="1"><g transform="translate(27.721869, 11.358505)"><g><path d="M 0.25 -3.390625 L 1.78125 -3.390625 L 1.78125 -2.875 L 1 -2.875 L 1 -2.046875 L 1.59375 -2.046875 L 1.59375 -1.515625 L 1 -1.515625 L 1 -0.5 L 1.78125 -0.5 L 1.78125 0 L 0.25 0 Z M 0.25 -3.390625 "/></g></g></g><g fill="#4c4c4c" fill-opacity="1"><g transform="translate(30.238798, 11.358505)"><g><path d="M 0.25 -3.390625 L 1.109375 -3.390625 C 1.398438 -3.390625 1.628906 -3.351562 1.796875 -3.28125 C 1.960938 -3.207031 2.078125 -3.09375 2.140625 -2.9375 C 2.210938 -2.78125 2.25 -2.570312 2.25 -2.3125 L 2.25 -1.09375 C 2.25 -0.820312 2.210938 -0.609375 2.140625 -0.453125 C 2.078125 -0.296875 1.960938 -0.179688 1.796875 -0.109375 C 1.628906 -0.0351562 1.40625 0 1.125 0 L 0.25 0 Z M 1.125 -0.515625 C 1.226562 -0.515625 1.304688 -0.53125 1.359375 -0.5625 C 1.410156 -0.59375 1.441406 -0.640625 1.453125 -0.703125 C 1.472656 -0.765625 1.484375 -0.851562 1.484375 -0.96875 L 1.484375 -2.453125 C 1.484375 -2.554688 1.472656 -2.632812 1.453125 -2.6875 C 1.441406 -2.75 1.410156 -2.796875 1.359375 -2.828125 C 1.304688 -2.859375 1.222656 -2.875 1.109375 -2.875 L 1 -2.875 L 1 -0.515625 Z M 1.125 -0.515625 "/></g></g></g></g></g><g clip-path="url(#a05709a836)"><path fill="#ffb800" d="M 63.566406 9.265625 C 64.132812 9.554688 64.683594 9.871094 65.214844 10.222656 L 68.222656 8.6875 L 71.59375 12.058594 L 70.058594 15.0625 C 71.195312 16.796875 72.023438 18.753906 72.457031 20.855469 L 75.667969 21.894531 L 75.667969 26.664062 L 72.460938 27.703125 C 72.023438 29.804688 71.199219 31.761719 70.058594 33.496094 L 71.59375 36.5 L 69.90625 38.1875 L 68.222656 39.875 L 65.214844 38.339844 C 63.480469 39.476562 61.523438 40.304688 59.425781 40.738281 L 58.382812 43.949219 L 53.617188 43.949219 L 52.574219 40.738281 C 50.476562 40.304688 48.519531 39.476562 46.785156 38.339844 L 43.777344 39.875 L 40.40625 36.503906 L 41.941406 33.496094 C 40.800781 31.761719 39.976562 29.804688 39.539062 27.703125 L 36.332031 26.664062 L 36.332031 21.894531 L 39.539062 20.855469 C 39.976562 18.753906 40.804688 16.796875 41.941406 15.066406 L 40.40625 12.058594 L 42.089844 10.371094 L 43.777344 8.6875 L 46.785156 10.222656 C 47.3125 9.871094 47.863281 9.554688 48.433594 9.265625 C 47.941406 9.894531 47.449219 10.523438 46.972656 11.152344 C 43.929688 15.195312 41.898438 19.050781 41.898438 24.28125 C 41.898438 32.066406 48.210938 38.378906 56 38.378906 C 63.785156 38.378906 70.101562 32.066406 70.101562 24.28125 C 70.101562 19.050781 68.066406 15.195312 65.027344 11.152344 C 64.550781 10.523438 64.058594 9.894531 63.566406 9.265625 " fill-opacity="1" fill-rule="evenodd"/></g><g clip-path="url(#ccf9097546)"><path fill="#4c4c4c" d="M 62 34.507812 C 56.058594 34.617188 53.257812 32.128906 51.636719 29.945312 C 48.445312 25.644531 51.402344 19.546875 54.847656 16.207031 C 56.066406 15.023438 56.761719 13.640625 57.109375 12.214844 C 58.292969 7.367188 55.445312 1.988281 55.445312 1.988281 C 52.703125 10.25 44.140625 14.335938 44.140625 24.28125 C 44.140625 30.828125 49.449219 36.136719 56 36.136719 C 58.191406 36.136719 60.242188 35.542969 62 34.507812 M 63.148438 24.28125 C 63.148438 30.9375 56.46875 32.347656 51.597656 27.5625 C 51.855469 32.039062 63.640625 37.335938 67.226562 28.292969 C 70.535156 19.941406 62.71875 12.699219 58.644531 6.292969 C 58.5 8.09375 58.375 11.714844 59.296875 15.027344 C 61.1875 17.507812 62.6875 19.902344 63.070312 23.203125 C 63.117188 23.566406 63.148438 23.910156 63.148438 24.28125 Z M 63.148438 24.28125 " fill-opacity="1" fill-rule="evenodd"/></g><path fill="#4c4c4c" d="M 60.625 20.558594 C 60.625 20.558594 62.230469 24.496094 59.789062 28.847656 C 61.097656 27.757812 61.933594 26.117188 61.933594 24.277344 C 61.933594 22.871094 61.445312 21.578125 60.625 20.558594 " fill-opacity="1" fill-rule="evenodd"/></svg>