<svg xmlns="http://www.w3.org/2000/svg" xmlns:xlink="http://www.w3.org/1999/xlink" width="150" zoomAndPan="magnify" viewBox="0 0 112.5 112.499997" height="150" preserveAspectRatio="xMidYMid meet" version="1.0"><defs><g/><clipPath id="31b0524876"><path d="M 0.105469 1 L 9 1 L 9 11 L 0.105469 11 Z M 0.105469 1 " clip-rule="nonzero"/></clipPath><clipPath id="5c897b5b3c"><rect x="0" width="53" y="0" height="15"/></clipPath><clipPath id="c4d15764a8"><path d="M 0.125 1 L 2 1 L 2 5 L 0.125 5 Z M 0.125 1 " clip-rule="nonzero"/></clipPath><clipPath id="506e566cdd"><rect x="0" width="43" y="0" height="12"/></clipPath><clipPath id="878d596998"><path d="M 38.566406 30 L 73.636719 30 L 73.636719 61.820312 L 38.566406 61.820312 Z M 38.566406 30 " clip-rule="nonzero"/></clipPath><clipPath id="6d347b4250"><path d="M 45 24.488281 L 67 24.488281 L 67 55 L 45 55 Z M 45 24.488281 " clip-rule="nonzero"/></clipPath></defs><g transform="matrix(1, 0, 0, 1, 30, 65)"><g clip-path="url(#5c897b5b3c)"><g clip-path="url(#31b0524876)"><g fill="#251818" fill-opacity="1"><g transform="translate(0.341585, 10.792268)"><g><path d="M 0.328125 -9.3125 L 8.359375 -9.3125 L 8.359375 -6.359375 L 6.0625 -6.359375 L 6.0625 -7.546875 L 3.921875 -7.546875 L 3.921875 -5.71875 L 6.453125 -5.71875 L 6.453125 -3.9375 L 3.921875 -3.9375 L 3.921875 -1.765625 L 6.0625 -1.765625 L 6.0625 -3.015625 L 8.359375 -3.015625 L 8.359375 0 L 0.328125 0 L 0.328125 -1.765625 L 1.171875 -1.765625 L 1.171875 -7.546875 L 0.328125 -7.546875 Z M 0.328125 -9.3125 "/></g></g></g></g><g fill="#251818" fill-opacity="1"><g transform="translate(9.031674, 10.792268)"><g><path d="M 0.328125 0 L 0.328125 -1.765625 L 1.15625 -1.765625 L 1.15625 -7.546875 L 0.328125 -7.546875 L 0.328125 -9.3125 L 4.390625 -9.3125 C 5.460938 -9.3125 6.375 -9.109375 7.125 -8.703125 C 7.882812 -8.304688 8.460938 -7.765625 8.859375 -7.078125 C 9.253906 -6.398438 9.453125 -5.632812 9.453125 -4.78125 C 9.453125 -3.257812 9.007812 -2.082031 8.125 -1.25 C 7.238281 -0.414062 5.976562 0 4.34375 0 Z M 3.890625 -1.765625 L 4.390625 -1.765625 C 4.859375 -1.773438 5.238281 -1.914062 5.53125 -2.1875 C 5.832031 -2.457031 6.050781 -2.816406 6.1875 -3.265625 C 6.320312 -3.722656 6.390625 -4.226562 6.390625 -4.78125 C 6.390625 -5.257812 6.320312 -5.707031 6.1875 -6.125 C 6.050781 -6.550781 5.832031 -6.894531 5.53125 -7.15625 C 5.238281 -7.414062 4.859375 -7.546875 4.390625 -7.546875 L 3.890625 -7.546875 Z M 3.890625 -1.765625 "/></g></g></g><g fill="#251818" fill-opacity="1"><g transform="translate(18.6134, 10.792268)"><g><path d="M 4.90625 -5.109375 L 4.96875 -5.109375 C 4.988281 -5.242188 5.054688 -5.425781 5.171875 -5.65625 C 5.296875 -5.894531 5.390625 -6.09375 5.453125 -6.25 L 6.1875 -7.59375 L 5.453125 -7.59375 L 5.453125 -9.3125 L 9.046875 -9.3125 L 9.046875 -7.59375 L 8.328125 -7.59375 L 5.859375 -3.28125 L 5.859375 -1.734375 L 6.609375 -1.734375 L 6.609375 0 L 2.34375 0 L 2.34375 -1.734375 L 3.109375 -1.734375 L 3.109375 -3.296875 L 0.515625 -7.59375 L -0.140625 -7.59375 L -0.140625 -9.3125 L 4.421875 -9.3125 L 4.421875 -7.59375 L 3.734375 -7.59375 L 4.5 -6.1875 C 4.53125 -6.113281 4.570312 -6.003906 4.625 -5.859375 C 4.6875 -5.710938 4.742188 -5.570312 4.796875 -5.4375 C 4.859375 -5.300781 4.894531 -5.191406 4.90625 -5.109375 Z M 4.90625 -5.109375 "/></g></g></g><g fill="#282120" fill-opacity="1"><g transform="translate(27.518597, 10.792268)"><g><path d="M 0.625 -4.0625 L 4.484375 -4.0625 L 4.484375 -2.296875 L 0.625 -2.296875 Z M 0.625 -4.0625 "/></g></g></g><g fill="#ffb800" fill-opacity="1"><g transform="translate(32.657377, 10.792268)"><g><path d="M 0.328125 0 L 0.328125 -1.734375 L 1.109375 -1.734375 L 1.109375 -7.59375 L 0.328125 -7.59375 L 0.328125 -9.3125 L 5.296875 -9.3125 C 6.410156 -9.3125 7.234375 -9.113281 7.765625 -8.71875 C 8.296875 -8.320312 8.5625 -7.757812 8.5625 -7.03125 C 8.5625 -6.46875 8.46875 -6.03125 8.28125 -5.71875 C 8.09375 -5.414062 7.75 -5.164062 7.25 -4.96875 C 7.726562 -4.832031 8.140625 -4.582031 8.484375 -4.21875 C 8.835938 -3.851562 9.015625 -3.347656 9.015625 -2.703125 C 9.015625 -1.765625 8.734375 -1.078125 8.171875 -0.640625 C 7.609375 -0.210938 6.679688 0 5.390625 0 Z M 3.859375 -7.546875 L 3.859375 -5.546875 L 4.671875 -5.546875 C 5.023438 -5.546875 5.265625 -5.632812 5.390625 -5.8125 C 5.515625 -6 5.578125 -6.253906 5.578125 -6.578125 C 5.578125 -6.890625 5.492188 -7.128906 5.328125 -7.296875 C 5.160156 -7.460938 4.953125 -7.546875 4.703125 -7.546875 Z M 3.859375 -1.734375 L 4.921875 -1.734375 C 5.210938 -1.734375 5.460938 -1.832031 5.671875 -2.03125 C 5.890625 -2.238281 6 -2.519531 6 -2.875 C 6 -3.207031 5.90625 -3.484375 5.71875 -3.703125 C 5.53125 -3.929688 5.253906 -4.046875 4.890625 -4.046875 L 3.859375 -4.046875 Z M 3.859375 -1.734375 "/></g></g></g><g fill="#ffb800" fill-opacity="1"><g transform="translate(41.799939, 10.792268)"><g><path d="M 4.96875 0.234375 C 4.039062 0.234375 3.21875 0.0546875 2.5 -0.296875 C 1.78125 -0.660156 1.21875 -1.207031 0.8125 -1.9375 C 0.40625 -2.664062 0.203125 -3.585938 0.203125 -4.703125 C 0.203125 -5.660156 0.398438 -6.503906 0.796875 -7.234375 C 1.191406 -7.960938 1.738281 -8.53125 2.4375 -8.9375 C 3.144531 -9.351562 3.957031 -9.5625 4.875 -9.5625 C 5.96875 -9.5625 6.863281 -9.351562 7.5625 -8.9375 C 8.269531 -8.53125 8.796875 -7.957031 9.140625 -7.21875 C 9.484375 -6.476562 9.65625 -5.609375 9.65625 -4.609375 C 9.65625 -3.609375 9.472656 -2.742188 9.109375 -2.015625 C 8.742188 -1.296875 8.210938 -0.738281 7.515625 -0.34375 C 6.816406 0.0390625 5.96875 0.234375 4.96875 0.234375 Z M 4.96875 -1.84375 C 5.382812 -1.84375 5.710938 -2.097656 5.953125 -2.609375 C 6.203125 -3.117188 6.328125 -3.785156 6.328125 -4.609375 C 6.328125 -5.148438 6.273438 -5.632812 6.171875 -6.0625 C 6.066406 -6.5 5.90625 -6.847656 5.6875 -7.109375 C 5.476562 -7.378906 5.203125 -7.515625 4.859375 -7.515625 C 4.585938 -7.515625 4.347656 -7.394531 4.140625 -7.15625 C 3.929688 -6.914062 3.769531 -6.582031 3.65625 -6.15625 C 3.539062 -5.738281 3.484375 -5.253906 3.484375 -4.703125 C 3.484375 -3.828125 3.625 -3.128906 3.90625 -2.609375 C 4.1875 -2.097656 4.539062 -1.84375 4.96875 -1.84375 Z M 4.96875 -1.84375 "/></g></g></g></g></g><g transform="matrix(1, 0, 0, 1, 35, 77)"><g clip-path="url(#506e566cdd)"><g clip-path="url(#c4d15764a8)"><g fill="#4c4c4c" fill-opacity="1"><g transform="translate(0.412014, 4.85601)"><g><path d="M 0.21875 -3 L 0.890625 -3 L 0.890625 0 L 0.21875 0 Z M 0.21875 -3 "/></g></g></g></g><g fill="#4c4c4c" fill-opacity="1"><g transform="translate(2.103913, 4.85601)"><g><path d="M 0.21875 -3 L 0.6875 -3 L 1.296875 -1.5625 L 1.296875 -3 L 1.84375 -3 L 1.84375 0 L 1.40625 0 L 0.78125 -1.5625 L 0.78125 0 L 0.21875 0 Z M 0.21875 -3 "/></g></g></g><g fill="#4c4c4c" fill-opacity="1"><g transform="translate(4.760371, 4.85601)"><g><path d="M 0.5 -2.5 L 0.046875 -2.5 L 0.046875 -3 L 1.609375 -3 L 1.609375 -2.5 L 1.15625 -2.5 L 1.15625 0 L 0.5 0 Z M 0.5 -2.5 "/></g></g></g><g fill="#4c4c4c" fill-opacity="1"><g transform="translate(6.986487, 4.85601)"><g><path d="M 0.21875 -3 L 1.5625 -3 L 1.5625 -2.546875 L 0.890625 -2.546875 L 0.890625 -1.796875 L 1.40625 -1.796875 L 1.40625 -1.34375 L 0.890625 -1.34375 L 0.890625 -0.453125 L 1.578125 -0.453125 L 1.578125 0 L 0.21875 0 Z M 0.21875 -3 "/></g></g></g><g fill="#4c4c4c" fill-opacity="1"><g transform="translate(9.220023, 4.85601)"><g><path d="M 0.21875 -3 L 1.046875 -3 C 1.378906 -3 1.628906 -2.941406 1.796875 -2.828125 C 1.960938 -2.710938 2.046875 -2.503906 2.046875 -2.203125 C 2.046875 -2.003906 2.019531 -1.84375 1.96875 -1.71875 C 1.914062 -1.601562 1.816406 -1.515625 1.671875 -1.453125 L 2.09375 0 L 1.40625 0 L 1.078125 -1.34375 L 0.890625 -1.34375 L 0.890625 0 L 0.21875 0 Z M 1.0625 -1.71875 C 1.195312 -1.71875 1.289062 -1.753906 1.34375 -1.828125 C 1.394531 -1.898438 1.421875 -2.003906 1.421875 -2.140625 C 1.421875 -2.273438 1.394531 -2.378906 1.34375 -2.453125 C 1.300781 -2.523438 1.21875 -2.5625 1.09375 -2.5625 L 0.890625 -2.5625 L 0.890625 -1.71875 Z M 1.0625 -1.71875 "/></g></g></g><g fill="#4c4c4c" fill-opacity="1"><g transform="translate(12.021167, 4.85601)"><g><path d="M 0.21875 -3 L 0.6875 -3 L 1.296875 -1.5625 L 1.296875 -3 L 1.84375 -3 L 1.84375 0 L 1.40625 0 L 0.78125 -1.5625 L 0.78125 0 L 0.21875 0 Z M 0.21875 -3 "/></g></g></g><g fill="#4c4c4c" fill-opacity="1"><g transform="translate(14.677625, 4.85601)"><g><path d="M 0.640625 -3 L 1.40625 -3 L 1.953125 0 L 1.34375 0 L 1.25 -0.640625 L 0.8125 -0.640625 L 0.703125 0 L 0.078125 0 Z M 1.1875 -1.03125 L 1.03125 -2.203125 L 0.859375 -1.03125 Z M 1.1875 -1.03125 "/></g></g></g><g fill="#4c4c4c" fill-opacity="1"><g transform="translate(17.296985, 4.85601)"><g><path d="M 0.5 -2.5 L 0.046875 -2.5 L 0.046875 -3 L 1.609375 -3 L 1.609375 -2.5 L 1.15625 -2.5 L 1.15625 0 L 0.5 0 Z M 0.5 -2.5 "/></g></g></g><g fill="#4c4c4c" fill-opacity="1"><g transform="translate(19.523101, 4.85601)"><g><path d="M 0.21875 -3 L 0.890625 -3 L 0.890625 0 L 0.21875 0 Z M 0.21875 -3 "/></g></g></g><g fill="#4c4c4c" fill-opacity="1"><g transform="translate(21.215, 4.85601)"><g><path d="M 1.078125 0.046875 C 0.753906 0.046875 0.523438 -0.0351562 0.390625 -0.203125 C 0.253906 -0.367188 0.1875 -0.613281 0.1875 -0.9375 L 0.1875 -2.0625 C 0.1875 -2.382812 0.253906 -2.628906 0.390625 -2.796875 C 0.523438 -2.960938 0.753906 -3.046875 1.078125 -3.046875 C 1.398438 -3.046875 1.628906 -2.960938 1.765625 -2.796875 C 1.910156 -2.628906 1.984375 -2.382812 1.984375 -2.0625 L 1.984375 -0.9375 C 1.984375 -0.613281 1.910156 -0.367188 1.765625 -0.203125 C 1.628906 -0.0351562 1.398438 0.046875 1.078125 0.046875 Z M 1.078125 -0.421875 C 1.171875 -0.421875 1.234375 -0.453125 1.265625 -0.515625 C 1.296875 -0.578125 1.3125 -0.664062 1.3125 -0.78125 L 1.3125 -2.21875 C 1.3125 -2.332031 1.296875 -2.421875 1.265625 -2.484375 C 1.234375 -2.546875 1.171875 -2.578125 1.078125 -2.578125 C 0.992188 -2.578125 0.9375 -2.546875 0.90625 -2.484375 C 0.875 -2.421875 0.859375 -2.332031 0.859375 -2.21875 L 0.859375 -0.78125 C 0.859375 -0.664062 0.867188 -0.578125 0.890625 -0.515625 C 0.921875 -0.453125 0.984375 -0.421875 1.078125 -0.421875 Z M 1.078125 -0.421875 "/></g></g></g><g fill="#4c4c4c" fill-opacity="1"><g transform="translate(23.964205, 4.85601)"><g><path d="M 0.21875 -3 L 0.6875 -3 L 1.296875 -1.5625 L 1.296875 -3 L 1.84375 -3 L 1.84375 0 L 1.40625 0 L 0.78125 -1.5625 L 0.78125 0 L 0.21875 0 Z M 0.21875 -3 "/></g></g></g><g fill="#4c4c4c" fill-opacity="1"><g transform="translate(26.620664, 4.85601)"><g><path d="M 0.640625 -3 L 1.40625 -3 L 1.953125 0 L 1.34375 0 L 1.25 -0.640625 L 0.8125 -0.640625 L 0.703125 0 L 0.078125 0 Z M 1.1875 -1.03125 L 1.03125 -2.203125 L 0.859375 -1.03125 Z M 1.1875 -1.03125 "/></g></g></g><g fill="#4c4c4c" fill-opacity="1"><g transform="translate(29.240023, 4.85601)"><g><path d="M 0.21875 -3 L 0.890625 -3 L 0.890625 -0.453125 L 1.578125 -0.453125 L 1.578125 0 L 0.21875 0 Z M 0.21875 -3 "/></g></g></g><g fill="#4c4c4c" fill-opacity="1"><g transform="translate(31.458719, 4.85601)"><g><path d="M 1.125 0.65625 C 0.863281 0.65625 0.664062 0.570312 0.53125 0.40625 C 0.40625 0.25 0.320312 0.046875 0.28125 -0.203125 C 0.25 -0.460938 0.234375 -0.785156 0.234375 -1.171875 C 0.234375 -1.578125 0.25 -1.910156 0.28125 -2.171875 C 0.320312 -2.429688 0.40625 -2.640625 0.53125 -2.796875 C 0.664062 -2.953125 0.863281 -3.03125 1.125 -3.03125 L 1.125 -2.609375 C 1.03125 -2.609375 0.957031 -2.550781 0.90625 -2.4375 C 0.863281 -2.332031 0.832031 -2.175781 0.8125 -1.96875 C 0.789062 -1.769531 0.78125 -1.503906 0.78125 -1.171875 C 0.78125 -0.835938 0.789062 -0.570312 0.8125 -0.375 C 0.832031 -0.175781 0.867188 -0.0234375 0.921875 0.078125 C 0.972656 0.179688 1.039062 0.234375 1.125 0.234375 Z M 1.125 0.65625 "/></g></g></g><g fill="#4c4c4c" fill-opacity="1"><g transform="translate(33.287881, 4.85601)"><g><path d="M 0.21875 -3 L 0.6875 -3 L 1.296875 -1.5625 L 1.296875 -3 L 1.84375 -3 L 1.84375 0 L 1.40625 0 L 0.78125 -1.5625 L 0.78125 0 L 0.21875 0 Z M 0.21875 -3 "/></g></g></g><g fill="#4c4c4c" fill-opacity="1"><g transform="translate(35.94434, 4.85601)"><g><path d="M 0.21875 -3 L 0.890625 -3 L 0.890625 0 L 0.21875 0 Z M 0.21875 -3 "/></g></g></g><g fill="#4c4c4c" fill-opacity="1"><g transform="translate(37.636238, 4.85601)"><g><path d="M 1 0.046875 C 0.707031 0.046875 0.5 -0.0390625 0.375 -0.21875 C 0.25 -0.40625 0.1875 -0.664062 0.1875 -1 L 0.1875 -2 C 0.1875 -2.332031 0.253906 -2.585938 0.390625 -2.765625 C 0.523438 -2.953125 0.753906 -3.046875 1.078125 -3.046875 C 1.390625 -3.046875 1.613281 -2.96875 1.75 -2.8125 C 1.882812 -2.65625 1.953125 -2.4375 1.953125 -2.15625 L 1.953125 -1.96875 L 1.3125 -1.96875 L 1.3125 -2.21875 C 1.3125 -2.332031 1.296875 -2.421875 1.265625 -2.484375 C 1.242188 -2.546875 1.1875 -2.578125 1.09375 -2.578125 C 0.988281 -2.578125 0.921875 -2.539062 0.890625 -2.46875 C 0.867188 -2.40625 0.859375 -2.316406 0.859375 -2.203125 L 0.859375 -0.8125 C 0.859375 -0.6875 0.875 -0.585938 0.90625 -0.515625 C 0.945312 -0.453125 1.015625 -0.421875 1.109375 -0.421875 C 1.273438 -0.421875 1.359375 -0.550781 1.359375 -0.8125 L 1.359375 -1.171875 L 1.09375 -1.171875 L 1.09375 -1.5625 L 1.96875 -1.5625 L 1.96875 0 L 1.53125 0 L 1.484375 -0.25 C 1.390625 -0.0507812 1.226562 0.046875 1 0.046875 Z M 1 0.046875 "/></g></g></g><g fill="#4c4c4c" fill-opacity="1"><g transform="translate(40.370604, 4.85601)"><g><path d="M 0.125 0.234375 C 0.21875 0.234375 0.285156 0.179688 0.328125 0.078125 C 0.378906 -0.0234375 0.414062 -0.175781 0.4375 -0.375 C 0.457031 -0.570312 0.46875 -0.835938 0.46875 -1.171875 C 0.46875 -1.503906 0.457031 -1.769531 0.4375 -1.96875 C 0.414062 -2.175781 0.378906 -2.332031 0.328125 -2.4375 C 0.285156 -2.550781 0.21875 -2.609375 0.125 -2.609375 L 0.125 -3.03125 C 0.382812 -3.03125 0.578125 -2.953125 0.703125 -2.796875 C 0.835938 -2.640625 0.921875 -2.429688 0.953125 -2.171875 C 0.992188 -1.910156 1.015625 -1.578125 1.015625 -1.171875 C 1.015625 -0.785156 0.992188 -0.460938 0.953125 -0.203125 C 0.921875 0.046875 0.835938 0.25 0.703125 0.40625 C 0.578125 0.570312 0.382812 0.65625 0.125 0.65625 Z M 0.125 0.234375 "/></g></g></g><g fill="#4c4c4c" fill-opacity="1"><g transform="translate(13.287354, 9.934727)"><g><path d="M 0.21875 -3 L 0.890625 -3 L 0.890625 -0.453125 L 1.578125 -0.453125 L 1.578125 0 L 0.21875 0 Z M 0.21875 -3 "/></g></g></g><g fill="#4c4c4c" fill-opacity="1"><g transform="translate(15.50605, 9.934727)"><g><path d="M 0.21875 -3 L 0.890625 -3 L 0.890625 0 L 0.21875 0 Z M 0.21875 -3 "/></g></g></g><g fill="#4c4c4c" fill-opacity="1"><g transform="translate(17.197949, 9.934727)"><g><path d="M 0.265625 -3 L 0.96875 -3 L 1.296875 -1.25 L 1.65625 -3 L 2.34375 -3 L 2.390625 0 L 1.921875 0 L 1.875 -2 L 1.515625 0 L 1.109375 0 L 0.734375 -2.015625 L 0.6875 0 L 0.21875 0 Z M 0.265625 -3 "/></g></g></g><g fill="#4c4c4c" fill-opacity="1"><g transform="translate(20.384916, 9.934727)"><g><path d="M 0.21875 -3 L 0.890625 -3 L 0.890625 0 L 0.21875 0 Z M 0.21875 -3 "/></g></g></g><g fill="#4c4c4c" fill-opacity="1"><g transform="translate(22.076815, 9.934727)"><g><path d="M 0.5 -2.5 L 0.046875 -2.5 L 0.046875 -3 L 1.609375 -3 L 1.609375 -2.5 L 1.15625 -2.5 L 1.15625 0 L 0.5 0 Z M 0.5 -2.5 "/></g></g></g><g fill="#4c4c4c" fill-opacity="1"><g transform="translate(24.302931, 9.934727)"><g><path d="M 0.21875 -3 L 1.5625 -3 L 1.5625 -2.546875 L 0.890625 -2.546875 L 0.890625 -1.796875 L 1.40625 -1.796875 L 1.40625 -1.34375 L 0.890625 -1.34375 L 0.890625 -0.453125 L 1.578125 -0.453125 L 1.578125 0 L 0.21875 0 Z M 0.21875 -3 "/></g></g></g><g fill="#4c4c4c" fill-opacity="1"><g transform="translate(26.536468, 9.934727)"><g><path d="M 0.21875 -3 L 0.984375 -3 C 1.242188 -3 1.445312 -2.96875 1.59375 -2.90625 C 1.738281 -2.84375 1.835938 -2.738281 1.890625 -2.59375 C 1.953125 -2.457031 1.984375 -2.273438 1.984375 -2.046875 L 1.984375 -0.96875 C 1.984375 -0.726562 1.953125 -0.539062 1.890625 -0.40625 C 1.835938 -0.269531 1.738281 -0.164062 1.59375 -0.09375 C 1.445312 -0.03125 1.242188 0 0.984375 0 L 0.21875 0 Z M 0.984375 -0.453125 C 1.085938 -0.453125 1.160156 -0.46875 1.203125 -0.5 C 1.242188 -0.53125 1.269531 -0.570312 1.28125 -0.625 C 1.300781 -0.675781 1.3125 -0.753906 1.3125 -0.859375 L 1.3125 -2.171875 C 1.3125 -2.265625 1.300781 -2.335938 1.28125 -2.390625 C 1.269531 -2.441406 1.238281 -2.476562 1.1875 -2.5 C 1.144531 -2.519531 1.078125 -2.53125 0.984375 -2.53125 L 0.890625 -2.53125 L 0.890625 -0.453125 Z M 0.984375 -0.453125 "/></g></g></g></g></g><g clip-path="url(#878d596998)"><path fill="#ffb800" d="M 62.710938 30.945312 C 63.214844 31.203125 63.707031 31.484375 64.175781 31.792969 L 66.84375 30.433594 L 68.339844 31.925781 L 69.835938 33.421875 L 68.472656 36.089844 C 69.484375 37.628906 70.21875 39.367188 70.601562 41.230469 L 73.453125 42.152344 L 73.453125 46.382812 L 70.605469 47.308594 C 70.21875 49.171875 69.484375 50.90625 68.472656 52.445312 L 69.835938 55.113281 L 66.84375 58.105469 L 64.175781 56.746094 C 62.636719 57.753906 60.898438 58.488281 59.035156 58.875 L 58.113281 61.722656 L 53.882812 61.722656 L 52.960938 58.875 C 51.097656 58.488281 49.359375 57.753906 47.820312 56.746094 L 45.152344 58.105469 L 42.160156 55.113281 L 43.523438 52.445312 C 42.511719 50.90625 41.777344 49.171875 41.390625 47.308594 L 38.542969 46.382812 L 38.542969 42.152344 L 41.390625 41.230469 C 41.777344 39.367188 42.511719 37.628906 43.523438 36.09375 L 42.160156 33.421875 L 43.65625 31.925781 L 45.152344 30.433594 L 47.820312 31.792969 C 48.289062 31.484375 48.777344 31.203125 49.285156 30.945312 C 48.847656 31.503906 48.410156 32.0625 47.988281 32.621094 C 45.289062 36.207031 43.484375 39.628906 43.484375 44.269531 C 43.484375 51.179688 49.085938 56.78125 55.996094 56.78125 C 62.90625 56.78125 68.511719 51.179688 68.511719 44.269531 C 68.511719 39.628906 66.707031 36.207031 64.007812 32.621094 C 63.585938 32.0625 63.148438 31.503906 62.710938 30.945312 " fill-opacity="1" fill-rule="evenodd"/></g><g clip-path="url(#6d347b4250)"><path fill="#4c4c4c" d="M 61.324219 53.347656 C 56.050781 53.441406 53.566406 51.234375 52.128906 49.296875 C 49.292969 45.480469 51.917969 40.070312 54.972656 37.105469 C 56.058594 36.054688 56.675781 34.828125 56.984375 33.5625 C 58.035156 29.261719 55.503906 24.488281 55.503906 24.488281 C 53.070312 31.820312 45.476562 35.445312 45.476562 44.269531 C 45.476562 50.082031 50.1875 54.792969 55.996094 54.792969 C 57.941406 54.792969 59.761719 54.265625 61.324219 53.347656 M 62.34375 44.269531 C 62.34375 50.175781 56.414062 51.429688 52.089844 47.183594 C 52.320312 51.15625 62.777344 55.855469 65.960938 47.832031 C 68.898438 40.421875 61.960938 33.992188 58.34375 28.308594 C 58.214844 29.90625 58.105469 33.121094 58.925781 36.058594 C 60.601562 38.261719 61.933594 40.382812 62.273438 43.3125 C 62.3125 43.636719 62.34375 43.941406 62.34375 44.269531 Z M 62.34375 44.269531 " fill-opacity="1" fill-rule="evenodd"/></g><path fill="#4c4c4c" d="M 60.101562 40.96875 C 60.101562 40.96875 61.527344 44.460938 59.359375 48.324219 C 60.523438 47.355469 61.265625 45.898438 61.265625 44.269531 C 61.265625 43.019531 60.832031 41.871094 60.101562 40.96875 " fill-opacity="1" fill-rule="evenodd"/></svg>