<svg xmlns="http://www.w3.org/2000/svg" xmlns:xlink="http://www.w3.org/1999/xlink" width="450" zoomAndPan="magnify" viewBox="0 0 337.5 187.499995" height="250" preserveAspectRatio="xMidYMid meet" version="1.0"><defs><g/><clipPath id="d56f81cc6c"><path d="M 78 0.304688 L 96 0.304688 L 96 19 L 78 19 Z M 78 0.304688 " clip-rule="nonzero"/></clipPath><clipPath id="6d188d6399"><rect x="0" width="99" y="0" height="26"/></clipPath><clipPath id="5f53087947"><rect x="0" width="80" y="0" height="21"/></clipPath><clipPath id="e69a7dd887"><path d="M 135.96875 46 L 201.003906 46 L 201.003906 105.171875 L 135.96875 105.171875 Z M 135.96875 46 " clip-rule="nonzero"/></clipPath><clipPath id="9ad31f8242"><path d="M 148 35.609375 L 189 35.609375 L 189 93 L 148 93 Z M 148 35.609375 " clip-rule="nonzero"/></clipPath></defs><g transform="matrix(1, 0, 0, 1, 120, 111)"><g clip-path="url(#6d188d6399)"><g fill="#251818" fill-opacity="1"><g transform="translate(0.623427, 18.518626)"><g><path d="M 0.625 -17.359375 L 15.609375 -17.359375 L 15.609375 -11.875 L 11.296875 -11.875 L 11.296875 -14.09375 L 7.328125 -14.09375 L 7.328125 -10.65625 L 12.046875 -10.65625 L 12.046875 -7.359375 L 7.328125 -7.359375 L 7.328125 -3.296875 L 11.296875 -3.296875 L 11.296875 -5.609375 L 15.609375 -5.609375 L 15.609375 0 L 0.625 0 L 0.625 -3.296875 L 2.1875 -3.296875 L 2.1875 -14.09375 L 0.625 -14.09375 Z M 0.625 -17.359375 "/></g></g></g><g fill="#251818" fill-opacity="1"><g transform="translate(16.837972, 18.518626)"><g><path d="M 0.625 0 L 0.625 -3.296875 L 2.15625 -3.296875 L 2.15625 -14.09375 L 0.625 -14.09375 L 0.625 -17.359375 L 8.203125 -17.359375 C 10.203125 -17.359375 11.90625 -16.984375 13.3125 -16.234375 C 14.71875 -15.492188 15.789062 -14.484375 16.53125 -13.203125 C 17.269531 -11.929688 17.640625 -10.503906 17.640625 -8.921875 C 17.640625 -6.085938 16.8125 -3.890625 15.15625 -2.328125 C 13.507812 -0.773438 11.15625 0 8.09375 0 Z M 7.25 -3.296875 L 8.203125 -3.296875 C 9.078125 -3.316406 9.785156 -3.578125 10.328125 -4.078125 C 10.878906 -4.585938 11.28125 -5.265625 11.53125 -6.109375 C 11.789062 -6.953125 11.921875 -7.890625 11.921875 -8.921875 C 11.921875 -9.816406 11.789062 -10.65625 11.53125 -11.4375 C 11.28125 -12.226562 10.878906 -12.867188 10.328125 -13.359375 C 9.785156 -13.847656 9.078125 -14.09375 8.203125 -14.09375 L 7.25 -14.09375 Z M 7.25 -3.296875 "/></g></g></g><g fill="#251818" fill-opacity="1"><g transform="translate(34.716192, 18.518626)"><g><path d="M 9.171875 -9.546875 L 9.265625 -9.546875 C 9.316406 -9.785156 9.445312 -10.125 9.65625 -10.5625 C 9.875 -11.007812 10.050781 -11.378906 10.1875 -11.671875 L 11.546875 -14.1875 L 10.1875 -14.1875 L 10.1875 -17.359375 L 16.875 -17.359375 L 16.875 -14.1875 L 15.53125 -14.1875 L 10.9375 -6.109375 L 10.9375 -3.234375 L 12.328125 -3.234375 L 12.328125 0 L 4.375 0 L 4.375 -3.234375 L 5.78125 -3.234375 L 5.78125 -6.15625 L 0.96875 -14.1875 L -0.25 -14.1875 L -0.25 -17.359375 L 8.25 -17.359375 L 8.25 -14.1875 L 6.953125 -14.1875 L 8.390625 -11.546875 C 8.441406 -11.398438 8.519531 -11.191406 8.625 -10.921875 C 8.738281 -10.660156 8.847656 -10.398438 8.953125 -10.140625 C 9.066406 -9.890625 9.140625 -9.691406 9.171875 -9.546875 Z M 9.171875 -9.546875 "/></g></g></g><g fill="#282120" fill-opacity="1"><g transform="translate(51.332099, 18.518626)"><g><path d="M 1.171875 -7.578125 L 8.375 -7.578125 L 8.375 -4.265625 L 1.171875 -4.265625 Z M 1.171875 -7.578125 "/></g></g></g><g fill="#ffb800" fill-opacity="1"><g transform="translate(60.920376, 18.518626)"><g><path d="M 0.625 0 L 0.625 -3.234375 L 2.0625 -3.234375 L 2.0625 -14.15625 L 0.625 -14.15625 L 0.625 -17.359375 L 9.890625 -17.359375 C 11.960938 -17.359375 13.492188 -16.988281 14.484375 -16.25 C 15.472656 -15.519531 15.96875 -14.476562 15.96875 -13.125 C 15.96875 -12.070312 15.796875 -11.257812 15.453125 -10.6875 C 15.109375 -10.125 14.472656 -9.648438 13.546875 -9.265625 C 14.429688 -9.015625 15.195312 -8.550781 15.84375 -7.875 C 16.488281 -7.195312 16.8125 -6.253906 16.8125 -5.046875 C 16.8125 -3.285156 16.285156 -2.003906 15.234375 -1.203125 C 14.179688 -0.398438 12.457031 0 10.0625 0 Z M 7.203125 -14.09375 L 7.203125 -10.359375 L 8.71875 -10.359375 C 9.382812 -10.359375 9.832031 -10.523438 10.0625 -10.859375 C 10.289062 -11.203125 10.40625 -11.671875 10.40625 -12.265625 C 10.40625 -12.847656 10.25 -13.296875 9.9375 -13.609375 C 9.632812 -13.929688 9.242188 -14.09375 8.765625 -14.09375 Z M 7.203125 -3.234375 L 9.1875 -3.234375 C 9.71875 -3.234375 10.1875 -3.421875 10.59375 -3.796875 C 11 -4.179688 11.203125 -4.703125 11.203125 -5.359375 C 11.203125 -5.992188 11.023438 -6.515625 10.671875 -6.921875 C 10.316406 -7.335938 9.800781 -7.546875 9.125 -7.546875 L 7.203125 -7.546875 Z M 7.203125 -3.234375 "/></g></g></g><g clip-path="url(#d56f81cc6c)"><g fill="#ffb800" fill-opacity="1"><g transform="translate(77.979175, 18.518626)"><g><path d="M 9.265625 0.453125 C 7.546875 0.453125 6.015625 0.117188 4.671875 -0.546875 C 3.328125 -1.222656 2.273438 -2.242188 1.515625 -3.609375 C 0.753906 -4.984375 0.375 -6.703125 0.375 -8.765625 C 0.375 -10.554688 0.738281 -12.132812 1.46875 -13.5 C 2.207031 -14.863281 3.234375 -15.925781 4.546875 -16.6875 C 5.867188 -17.457031 7.382812 -17.84375 9.09375 -17.84375 C 11.132812 -17.84375 12.8125 -17.457031 14.125 -16.6875 C 15.4375 -15.925781 16.410156 -14.851562 17.046875 -13.46875 C 17.691406 -12.09375 18.015625 -10.46875 18.015625 -8.59375 C 18.015625 -6.71875 17.671875 -5.101562 16.984375 -3.75 C 16.304688 -2.40625 15.316406 -1.367188 14.015625 -0.640625 C 12.722656 0.0859375 11.140625 0.453125 9.265625 0.453125 Z M 9.265625 -3.453125 C 10.046875 -3.453125 10.660156 -3.921875 11.109375 -4.859375 C 11.566406 -5.804688 11.796875 -7.050781 11.796875 -8.59375 C 11.796875 -9.601562 11.703125 -10.515625 11.515625 -11.328125 C 11.328125 -12.140625 11.03125 -12.789062 10.625 -13.28125 C 10.226562 -13.769531 9.707031 -14.015625 9.0625 -14.015625 C 8.570312 -14.023438 8.128906 -13.804688 7.734375 -13.359375 C 7.347656 -12.910156 7.046875 -12.289062 6.828125 -11.5 C 6.617188 -10.707031 6.515625 -9.796875 6.515625 -8.765625 C 6.515625 -7.140625 6.773438 -5.847656 7.296875 -4.890625 C 7.816406 -3.929688 8.472656 -3.453125 9.265625 -3.453125 Z M 9.265625 -3.453125 "/></g></g></g></g></g></g><g transform="matrix(1, 0, 0, 1, 129, 132)"><g clip-path="url(#5f53087947)"><g fill="#4c4c4c" fill-opacity="1"><g transform="translate(1.084164, 8.832755)"><g><path d="M 0.421875 -5.609375 L 1.65625 -5.609375 L 1.65625 0 L 0.421875 0 Z M 0.421875 -5.609375 "/></g></g></g><g fill="#4c4c4c" fill-opacity="1"><g transform="translate(4.241021, 8.832755)"><g><path d="M 0.421875 -5.609375 L 1.28125 -5.609375 L 2.4375 -2.90625 L 2.4375 -5.609375 L 3.453125 -5.609375 L 3.453125 0 L 2.625 0 L 1.46875 -2.90625 L 1.46875 0 L 0.421875 0 Z M 0.421875 -5.609375 "/></g></g></g><g fill="#4c4c4c" fill-opacity="1"><g transform="translate(9.197616, 8.832755)"><g><path d="M 0.921875 -4.6875 L 0.078125 -4.6875 L 0.078125 -5.609375 L 3 -5.609375 L 3 -4.6875 L 2.171875 -4.6875 L 2.171875 0 L 0.921875 0 Z M 0.921875 -4.6875 "/></g></g></g><g fill="#4c4c4c" fill-opacity="1"><g transform="translate(13.351251, 8.832755)"><g><path d="M 0.421875 -5.609375 L 2.9375 -5.609375 L 2.9375 -4.765625 L 1.65625 -4.765625 L 1.65625 -3.375 L 2.625 -3.375 L 2.625 -2.515625 L 1.65625 -2.515625 L 1.65625 -0.84375 L 2.953125 -0.84375 L 2.953125 0 L 0.421875 0 Z M 0.421875 -5.609375 "/></g></g></g><g fill="#4c4c4c" fill-opacity="1"><g transform="translate(17.518731, 8.832755)"><g><path d="M 0.421875 -5.609375 L 1.953125 -5.609375 C 2.566406 -5.609375 3.03125 -5.5 3.34375 -5.28125 C 3.664062 -5.0625 3.828125 -4.675781 3.828125 -4.125 C 3.828125 -3.75 3.773438 -3.453125 3.671875 -3.234375 C 3.578125 -3.015625 3.398438 -2.84375 3.140625 -2.71875 L 3.90625 0 L 2.625 0 L 2 -2.515625 L 1.65625 -2.515625 L 1.65625 0 L 0.421875 0 Z M 2 -3.21875 C 2.25 -3.21875 2.421875 -3.285156 2.515625 -3.421875 C 2.617188 -3.554688 2.671875 -3.753906 2.671875 -4.015625 C 2.671875 -4.265625 2.625 -4.453125 2.53125 -4.578125 C 2.4375 -4.710938 2.28125 -4.78125 2.0625 -4.78125 L 1.65625 -4.78125 L 1.65625 -3.21875 Z M 2 -3.21875 "/></g></g></g><g fill="#4c4c4c" fill-opacity="1"><g transform="translate(22.745291, 8.832755)"><g><path d="M 0.421875 -5.609375 L 1.28125 -5.609375 L 2.4375 -2.90625 L 2.4375 -5.609375 L 3.453125 -5.609375 L 3.453125 0 L 2.625 0 L 1.46875 -2.90625 L 1.46875 0 L 0.421875 0 Z M 0.421875 -5.609375 "/></g></g></g><g fill="#4c4c4c" fill-opacity="1"><g transform="translate(27.701886, 8.832755)"><g><path d="M 1.203125 -5.609375 L 2.609375 -5.609375 L 3.65625 0 L 2.515625 0 L 2.328125 -1.1875 L 1.515625 -1.1875 L 1.3125 0 L 0.140625 0 Z M 2.21875 -1.921875 L 1.921875 -4.109375 L 1.625 -1.921875 Z M 2.21875 -1.921875 "/></g></g></g><g fill="#4c4c4c" fill-opacity="1"><g transform="translate(32.589262, 8.832755)"><g><path d="M 0.921875 -4.6875 L 0.078125 -4.6875 L 0.078125 -5.609375 L 3 -5.609375 L 3 -4.6875 L 2.171875 -4.6875 L 2.171875 0 L 0.921875 0 Z M 0.921875 -4.6875 "/></g></g></g><g fill="#4c4c4c" fill-opacity="1"><g transform="translate(36.742896, 8.832755)"><g><path d="M 0.421875 -5.609375 L 1.65625 -5.609375 L 1.65625 0 L 0.421875 0 Z M 0.421875 -5.609375 "/></g></g></g><g fill="#4c4c4c" fill-opacity="1"><g transform="translate(39.899753, 8.832755)"><g><path d="M 2.015625 0.078125 C 1.410156 0.078125 0.976562 -0.0703125 0.71875 -0.375 C 0.46875 -0.6875 0.34375 -1.148438 0.34375 -1.765625 L 0.34375 -3.84375 C 0.34375 -4.457031 0.46875 -4.914062 0.71875 -5.21875 C 0.976562 -5.53125 1.410156 -5.6875 2.015625 -5.6875 C 2.628906 -5.6875 3.066406 -5.53125 3.328125 -5.21875 C 3.585938 -4.90625 3.71875 -4.445312 3.71875 -3.84375 L 3.71875 -1.765625 C 3.71875 -1.148438 3.585938 -0.6875 3.328125 -0.375 C 3.066406 -0.0703125 2.628906 0.078125 2.015625 0.078125 Z M 2.015625 -0.796875 C 2.191406 -0.796875 2.304688 -0.851562 2.359375 -0.96875 C 2.421875 -1.09375 2.453125 -1.253906 2.453125 -1.453125 L 2.453125 -4.15625 C 2.453125 -4.363281 2.421875 -4.523438 2.359375 -4.640625 C 2.304688 -4.753906 2.191406 -4.8125 2.015625 -4.8125 C 1.847656 -4.8125 1.738281 -4.75 1.6875 -4.625 C 1.632812 -4.507812 1.609375 -4.351562 1.609375 -4.15625 L 1.609375 -1.453125 C 1.609375 -1.253906 1.632812 -1.09375 1.6875 -0.96875 C 1.738281 -0.851562 1.847656 -0.796875 2.015625 -0.796875 Z M 2.015625 -0.796875 "/></g></g></g><g fill="#4c4c4c" fill-opacity="1"><g transform="translate(45.029403, 8.832755)"><g><path d="M 0.421875 -5.609375 L 1.28125 -5.609375 L 2.4375 -2.90625 L 2.4375 -5.609375 L 3.453125 -5.609375 L 3.453125 0 L 2.625 0 L 1.46875 -2.90625 L 1.46875 0 L 0.421875 0 Z M 0.421875 -5.609375 "/></g></g></g><g fill="#4c4c4c" fill-opacity="1"><g transform="translate(49.985998, 8.832755)"><g><path d="M 1.203125 -5.609375 L 2.609375 -5.609375 L 3.65625 0 L 2.515625 0 L 2.328125 -1.1875 L 1.515625 -1.1875 L 1.3125 0 L 0.140625 0 Z M 2.21875 -1.921875 L 1.921875 -4.109375 L 1.625 -1.921875 Z M 2.21875 -1.921875 "/></g></g></g><g fill="#4c4c4c" fill-opacity="1"><g transform="translate(54.873373, 8.832755)"><g><path d="M 0.421875 -5.609375 L 1.65625 -5.609375 L 1.65625 -0.84375 L 2.9375 -0.84375 L 2.9375 0 L 0.421875 0 Z M 0.421875 -5.609375 "/></g></g></g><g fill="#4c4c4c" fill-opacity="1"><g transform="translate(59.013163, 8.832755)"><g><path d="M 2.09375 1.234375 C 1.613281 1.234375 1.253906 1.082031 1.015625 0.78125 C 0.773438 0.476562 0.613281 0.0859375 0.53125 -0.390625 C 0.457031 -0.867188 0.421875 -1.46875 0.421875 -2.1875 C 0.421875 -2.945312 0.457031 -3.566406 0.53125 -4.046875 C 0.601562 -4.535156 0.757812 -4.925781 1 -5.21875 C 1.25 -5.519531 1.613281 -5.671875 2.09375 -5.671875 L 2.09375 -4.875 C 1.925781 -4.875 1.796875 -4.769531 1.703125 -4.5625 C 1.617188 -4.363281 1.554688 -4.070312 1.515625 -3.6875 C 1.484375 -3.3125 1.46875 -2.8125 1.46875 -2.1875 C 1.46875 -1.570312 1.484375 -1.070312 1.515625 -0.6875 C 1.554688 -0.3125 1.625 -0.03125 1.71875 0.15625 C 1.8125 0.34375 1.9375 0.4375 2.09375 0.4375 Z M 2.09375 1.234375 "/></g></g></g><g fill="#4c4c4c" fill-opacity="1"><g transform="translate(62.426135, 8.832755)"><g><path d="M 0.421875 -5.609375 L 1.28125 -5.609375 L 2.4375 -2.90625 L 2.4375 -5.609375 L 3.453125 -5.609375 L 3.453125 0 L 2.625 0 L 1.46875 -2.90625 L 1.46875 0 L 0.421875 0 Z M 0.421875 -5.609375 "/></g></g></g><g fill="#4c4c4c" fill-opacity="1"><g transform="translate(67.382731, 8.832755)"><g><path d="M 0.421875 -5.609375 L 1.65625 -5.609375 L 1.65625 0 L 0.421875 0 Z M 0.421875 -5.609375 "/></g></g></g><g fill="#4c4c4c" fill-opacity="1"><g transform="translate(70.539588, 8.832755)"><g><path d="M 1.875 0.078125 C 1.320312 0.078125 0.925781 -0.0859375 0.6875 -0.421875 C 0.457031 -0.753906 0.34375 -1.234375 0.34375 -1.859375 L 0.34375 -3.734375 C 0.34375 -4.367188 0.46875 -4.851562 0.71875 -5.1875 C 0.976562 -5.519531 1.410156 -5.6875 2.015625 -5.6875 C 2.609375 -5.6875 3.03125 -5.539062 3.28125 -5.25 C 3.53125 -4.96875 3.65625 -4.566406 3.65625 -4.046875 L 3.65625 -3.6875 L 2.453125 -3.6875 L 2.453125 -4.140625 C 2.453125 -4.359375 2.425781 -4.523438 2.375 -4.640625 C 2.320312 -4.753906 2.207031 -4.8125 2.03125 -4.8125 C 1.851562 -4.8125 1.738281 -4.75 1.6875 -4.625 C 1.632812 -4.5 1.609375 -4.328125 1.609375 -4.109375 L 1.609375 -1.515625 C 1.609375 -1.285156 1.640625 -1.109375 1.703125 -0.984375 C 1.773438 -0.859375 1.894531 -0.796875 2.0625 -0.796875 C 2.382812 -0.796875 2.546875 -1.035156 2.546875 -1.515625 L 2.546875 -2.1875 L 2.046875 -2.1875 L 2.046875 -2.90625 L 3.671875 -2.90625 L 3.671875 0 L 2.859375 0 L 2.78125 -0.46875 C 2.601562 -0.101562 2.300781 0.078125 1.875 0.078125 Z M 1.875 0.078125 "/></g></g></g><g fill="#4c4c4c" fill-opacity="1"><g transform="translate(75.641547, 8.832755)"><g><path d="M 0.25 0.4375 C 0.40625 0.4375 0.523438 0.335938 0.609375 0.140625 C 0.703125 -0.046875 0.765625 -0.328125 0.796875 -0.703125 C 0.835938 -1.078125 0.859375 -1.570312 0.859375 -2.1875 C 0.859375 -2.820312 0.84375 -3.328125 0.8125 -3.703125 C 0.78125 -4.085938 0.71875 -4.378906 0.625 -4.578125 C 0.539062 -4.773438 0.414062 -4.875 0.25 -4.875 L 0.25 -5.671875 C 0.726562 -5.671875 1.085938 -5.519531 1.328125 -5.21875 C 1.578125 -4.925781 1.734375 -4.535156 1.796875 -4.046875 C 1.867188 -3.566406 1.90625 -2.945312 1.90625 -2.1875 C 1.90625 -1.476562 1.867188 -0.878906 1.796875 -0.390625 C 1.722656 0.0859375 1.566406 0.476562 1.328125 0.78125 C 1.085938 1.082031 0.726562 1.234375 0.25 1.234375 Z M 0.25 0.4375 "/></g></g></g><g fill="#4c4c4c" fill-opacity="1"><g transform="translate(25.107826, 18.308961)"><g><path d="M 0.421875 -5.609375 L 1.65625 -5.609375 L 1.65625 -0.84375 L 2.9375 -0.84375 L 2.9375 0 L 0.421875 0 Z M 0.421875 -5.609375 "/></g></g></g><g fill="#4c4c4c" fill-opacity="1"><g transform="translate(29.247616, 18.308961)"><g><path d="M 0.421875 -5.609375 L 1.65625 -5.609375 L 1.65625 0 L 0.421875 0 Z M 0.421875 -5.609375 "/></g></g></g><g fill="#4c4c4c" fill-opacity="1"><g transform="translate(32.404473, 18.308961)"><g><path d="M 0.484375 -5.609375 L 1.828125 -5.609375 L 2.4375 -2.34375 L 3.09375 -5.609375 L 4.375 -5.609375 L 4.484375 0 L 3.59375 0 L 3.5 -3.734375 L 2.84375 0 L 2.0625 0 L 1.375 -3.765625 L 1.28125 0 L 0.390625 0 Z M 0.484375 -5.609375 "/></g></g></g><g fill="#4c4c4c" fill-opacity="1"><g transform="translate(38.350928, 18.308961)"><g><path d="M 0.421875 -5.609375 L 1.65625 -5.609375 L 1.65625 0 L 0.421875 0 Z M 0.421875 -5.609375 "/></g></g></g><g fill="#4c4c4c" fill-opacity="1"><g transform="translate(41.507786, 18.308961)"><g><path d="M 0.921875 -4.6875 L 0.078125 -4.6875 L 0.078125 -5.609375 L 3 -5.609375 L 3 -4.6875 L 2.171875 -4.6875 L 2.171875 0 L 0.921875 0 Z M 0.921875 -4.6875 "/></g></g></g><g fill="#4c4c4c" fill-opacity="1"><g transform="translate(45.66142, 18.308961)"><g><path d="M 0.421875 -5.609375 L 2.9375 -5.609375 L 2.9375 -4.765625 L 1.65625 -4.765625 L 1.65625 -3.375 L 2.625 -3.375 L 2.625 -2.515625 L 1.65625 -2.515625 L 1.65625 -0.84375 L 2.953125 -0.84375 L 2.953125 0 L 0.421875 0 Z M 0.421875 -5.609375 "/></g></g></g><g fill="#4c4c4c" fill-opacity="1"><g transform="translate(49.8289, 18.308961)"><g><path d="M 0.421875 -5.609375 L 1.828125 -5.609375 C 2.316406 -5.609375 2.695312 -5.546875 2.96875 -5.421875 C 3.238281 -5.304688 3.429688 -5.117188 3.546875 -4.859375 C 3.660156 -4.609375 3.71875 -4.265625 3.71875 -3.828125 L 3.71875 -1.796875 C 3.71875 -1.367188 3.660156 -1.023438 3.546875 -0.765625 C 3.429688 -0.503906 3.238281 -0.3125 2.96875 -0.1875 C 2.695312 -0.0625 2.320312 0 1.84375 0 L 0.421875 0 Z M 1.84375 -0.859375 C 2.03125 -0.859375 2.164062 -0.882812 2.25 -0.9375 C 2.332031 -0.988281 2.382812 -1.0625 2.40625 -1.15625 C 2.425781 -1.257812 2.4375 -1.410156 2.4375 -1.609375 L 2.4375 -4.046875 C 2.4375 -4.222656 2.425781 -4.359375 2.40625 -4.453125 C 2.382812 -4.554688 2.328125 -4.628906 2.234375 -4.671875 C 2.148438 -4.710938 2.019531 -4.734375 1.84375 -4.734375 L 1.65625 -4.734375 L 1.65625 -0.859375 Z M 1.84375 -0.859375 "/></g></g></g></g></g><g clip-path="url(#e69a7dd887)"><path fill="#ffb800" d="M 181.019531 47.660156 C 181.964844 48.136719 182.875 48.664062 183.753906 49.242188 L 188.730469 46.699219 L 194.3125 52.28125 L 191.769531 57.257812 C 193.65625 60.128906 195.027344 63.371094 195.746094 66.847656 L 201.0625 68.570312 L 201.0625 76.464844 L 195.746094 78.1875 C 195.027344 81.664062 193.660156 84.902344 191.773438 87.773438 L 194.3125 92.753906 L 191.523438 95.546875 L 188.730469 98.335938 L 183.753906 95.792969 C 180.882812 97.679688 177.640625 99.050781 174.167969 99.769531 L 172.445312 105.085938 L 164.546875 105.085938 L 162.828125 99.769531 C 159.351562 99.050781 156.109375 97.679688 153.238281 95.792969 L 148.257812 98.335938 L 145.46875 95.546875 L 142.679688 92.753906 L 145.21875 87.777344 C 143.332031 84.90625 141.964844 81.667969 141.246094 78.1875 L 135.929688 76.464844 L 135.929688 68.570312 L 141.246094 66.847656 C 141.964844 63.371094 143.335938 60.132812 145.21875 57.261719 L 142.679688 52.28125 L 145.46875 49.492188 L 148.257812 46.699219 L 153.238281 49.242188 C 154.117188 48.664062 155.027344 48.136719 155.96875 47.660156 C 155.152344 48.703125 154.335938 49.742188 153.550781 50.785156 C 148.511719 57.476562 145.148438 63.859375 145.148438 72.519531 C 145.148438 85.410156 155.601562 95.863281 168.496094 95.863281 C 181.386719 95.863281 191.84375 85.410156 191.84375 72.519531 C 191.84375 63.859375 188.476562 57.476562 183.441406 50.785156 C 182.652344 49.742188 181.839844 48.703125 181.019531 47.660156 " fill-opacity="1" fill-rule="evenodd"/></g><g clip-path="url(#9ad31f8242)"><path fill="#4c4c4c" d="M 178.433594 89.457031 C 168.597656 89.636719 163.957031 85.515625 161.273438 81.902344 C 155.988281 74.78125 160.886719 64.683594 166.585938 59.148438 C 168.605469 57.191406 169.761719 54.90625 170.335938 52.542969 C 172.292969 44.515625 167.578125 35.609375 167.578125 35.609375 C 163.035156 49.292969 148.863281 56.050781 148.863281 72.519531 C 148.863281 83.363281 157.652344 92.152344 168.496094 92.152344 C 172.121094 92.152344 175.519531 91.167969 178.433594 89.457031 M 180.332031 72.519531 C 180.332031 83.542969 169.273438 85.878906 161.203125 77.953125 C 161.636719 85.367188 181.148438 94.136719 187.082031 79.164062 C 192.5625 65.339844 179.621094 53.347656 172.875 42.738281 C 172.632812 45.71875 172.425781 51.714844 173.957031 57.199219 C 177.082031 61.304688 179.570312 65.269531 180.203125 70.738281 C 180.28125 71.339844 180.332031 71.910156 180.332031 72.519531 Z M 180.332031 72.519531 " fill-opacity="1" fill-rule="evenodd"/></g><path fill="#4c4c4c" d="M 176.15625 66.359375 C 176.15625 66.359375 178.8125 72.875 174.769531 80.082031 C 176.941406 78.28125 178.324219 75.558594 178.324219 72.515625 C 178.324219 70.1875 177.511719 68.046875 176.15625 66.359375 " fill-opacity="1" fill-rule="evenodd"/></svg>