<svg xmlns="http://www.w3.org/2000/svg" xmlns:xlink="http://www.w3.org/1999/xlink" width="150" zoomAndPan="magnify" viewBox="0 0 112.5 74.999997" height="100" preserveAspectRatio="xMidYMid meet" version="1.0"><defs><g/><clipPath id="6592ace15f"><path d="M 1 0.519531 L 9 0.519531 L 9 10 L 1 10 Z M 1 0.519531 " clip-rule="nonzero"/></clipPath><clipPath id="feb961706b"><path d="M 9 0.519531 L 18 0.519531 L 18 10 L 9 10 Z M 9 0.519531 " clip-rule="nonzero"/></clipPath><clipPath id="c2969ae628"><path d="M 17 0.519531 L 26 0.519531 L 26 10 L 17 10 Z M 17 0.519531 " clip-rule="nonzero"/></clipPath><clipPath id="cb8f36f954"><path d="M 30 0.519531 L 39 0.519531 L 39 10 L 30 10 Z M 30 0.519531 " clip-rule="nonzero"/></clipPath><clipPath id="5fc0598bb4"><path d="M 38 0.519531 L 47 0.519531 L 47 10 L 38 10 Z M 38 0.519531 " clip-rule="nonzero"/></clipPath><clipPath id="831df687a1"><rect x="0" width="49" y="0" height="13"/></clipPath><clipPath id="47cc02454b"><path d="M 0.273438 2 L 2 2 L 2 5 L 0.273438 5 Z M 0.273438 2 " clip-rule="nonzero"/></clipPath><clipPath id="f8524e48ec"><rect x="0" width="39" y="0" height="11"/></clipPath><clipPath id="982111dc60"><path d="M 40.28125 14 L 71.625 14 L 71.625 42.6875 L 40.28125 42.6875 Z M 40.28125 14 " clip-rule="nonzero"/></clipPath><clipPath id="0df2423d3a"><path d="M 46 9.089844 L 66 9.089844 L 66 37 L 46 37 Z M 46 9.089844 " clip-rule="nonzero"/></clipPath></defs><g transform="matrix(1, 0, 0, 1, 32, 46)"><g clip-path="url(#831df687a1)"><g clip-path="url(#6592ace15f)"><g fill="#251818" fill-opacity="1"><g transform="translate(0.868182, 9.342397)"><g><path d="M 0.296875 -8.390625 L 7.53125 -8.390625 L 7.53125 -5.734375 L 5.453125 -5.734375 L 5.453125 -6.796875 L 3.546875 -6.796875 L 3.546875 -5.140625 L 5.8125 -5.140625 L 5.8125 -3.546875 L 3.546875 -3.546875 L 3.546875 -1.59375 L 5.453125 -1.59375 L 5.453125 -2.71875 L 7.53125 -2.71875 L 7.53125 0 L 0.296875 0 L 0.296875 -1.59375 L 1.0625 -1.59375 L 1.0625 -6.796875 L 0.296875 -6.796875 Z M 0.296875 -8.390625 "/></g></g></g></g><g clip-path="url(#feb961706b)"><g fill="#251818" fill-opacity="1"><g transform="translate(8.70259, 9.342397)"><g><path d="M 0.296875 0 L 0.296875 -1.59375 L 1.046875 -1.59375 L 1.046875 -6.796875 L 0.296875 -6.796875 L 0.296875 -8.390625 L 3.953125 -8.390625 C 4.921875 -8.390625 5.742188 -8.207031 6.421875 -7.84375 C 7.109375 -7.488281 7.628906 -7 7.984375 -6.375 C 8.335938 -5.757812 8.515625 -5.070312 8.515625 -4.3125 C 8.515625 -2.9375 8.113281 -1.875 7.3125 -1.125 C 6.519531 -0.375 5.382812 0 3.90625 0 Z M 3.5 -1.59375 L 3.953125 -1.59375 C 4.378906 -1.601562 4.722656 -1.726562 4.984375 -1.96875 C 5.253906 -2.21875 5.453125 -2.546875 5.578125 -2.953125 C 5.703125 -3.359375 5.765625 -3.8125 5.765625 -4.3125 C 5.765625 -4.738281 5.703125 -5.140625 5.578125 -5.515625 C 5.453125 -5.898438 5.253906 -6.207031 4.984375 -6.4375 C 4.722656 -6.675781 4.378906 -6.796875 3.953125 -6.796875 L 3.5 -6.796875 Z M 3.5 -1.59375 "/></g></g></g></g><g clip-path="url(#c2969ae628)"><g fill="#251818" fill-opacity="1"><g transform="translate(17.340838, 9.342397)"><g><path d="M 4.421875 -4.609375 L 4.46875 -4.609375 C 4.5 -4.722656 4.566406 -4.882812 4.671875 -5.09375 C 4.773438 -5.3125 4.859375 -5.492188 4.921875 -5.640625 L 5.578125 -6.859375 L 4.921875 -6.859375 L 4.921875 -8.390625 L 8.140625 -8.390625 L 8.140625 -6.859375 L 7.5 -6.859375 L 5.28125 -2.953125 L 5.28125 -1.5625 L 5.953125 -1.5625 L 5.953125 0 L 2.109375 0 L 2.109375 -1.5625 L 2.796875 -1.5625 L 2.796875 -2.96875 L 0.46875 -6.859375 L -0.125 -6.859375 L -0.125 -8.390625 L 3.984375 -8.390625 L 3.984375 -6.859375 L 3.359375 -6.859375 L 4.0625 -5.578125 C 4.082031 -5.503906 4.117188 -5.40625 4.171875 -5.28125 C 4.222656 -5.15625 4.273438 -5.03125 4.328125 -4.90625 C 4.378906 -4.78125 4.410156 -4.679688 4.421875 -4.609375 Z M 4.421875 -4.609375 "/></g></g></g></g><g fill="#282120" fill-opacity="1"><g transform="translate(25.369172, 9.342397)"><g><path d="M 0.5625 -3.65625 L 4.046875 -3.65625 L 4.046875 -2.0625 L 0.5625 -2.0625 Z M 0.5625 -3.65625 "/></g></g></g><g clip-path="url(#cb8f36f954)"><g fill="#ffb800" fill-opacity="1"><g transform="translate(30.001955, 9.342397)"><g><path d="M 0.296875 0 L 0.296875 -1.5625 L 1 -1.5625 L 1 -6.84375 L 0.296875 -6.84375 L 0.296875 -8.390625 L 4.78125 -8.390625 C 5.78125 -8.390625 6.519531 -8.207031 7 -7.84375 C 7.476562 -7.488281 7.71875 -6.988281 7.71875 -6.34375 C 7.71875 -5.832031 7.632812 -5.4375 7.46875 -5.15625 C 7.300781 -4.882812 6.992188 -4.65625 6.546875 -4.46875 C 6.972656 -4.351562 7.34375 -4.128906 7.65625 -3.796875 C 7.96875 -3.472656 8.125 -3.019531 8.125 -2.4375 C 8.125 -1.582031 7.867188 -0.960938 7.359375 -0.578125 C 6.847656 -0.191406 6.015625 0 4.859375 0 Z M 3.484375 -6.796875 L 3.484375 -5 L 4.21875 -5 C 4.53125 -5 4.742188 -5.082031 4.859375 -5.25 C 4.972656 -5.414062 5.03125 -5.640625 5.03125 -5.921875 C 5.03125 -6.203125 4.953125 -6.414062 4.796875 -6.5625 C 4.648438 -6.71875 4.460938 -6.796875 4.234375 -6.796875 Z M 3.484375 -1.5625 L 4.4375 -1.5625 C 4.695312 -1.5625 4.921875 -1.648438 5.109375 -1.828125 C 5.304688 -2.015625 5.40625 -2.269531 5.40625 -2.59375 C 5.40625 -2.894531 5.316406 -3.144531 5.140625 -3.34375 C 4.972656 -3.539062 4.726562 -3.640625 4.40625 -3.640625 L 3.484375 -3.640625 Z M 3.484375 -1.5625 "/></g></g></g></g><g clip-path="url(#5fc0598bb4)"><g fill="#ffb800" fill-opacity="1"><g transform="translate(38.244282, 9.342397)"><g><path d="M 4.46875 0.21875 C 3.644531 0.21875 2.90625 0.0546875 2.25 -0.265625 C 1.601562 -0.585938 1.097656 -1.078125 0.734375 -1.734375 C 0.367188 -2.398438 0.1875 -3.234375 0.1875 -4.234375 C 0.1875 -5.097656 0.363281 -5.859375 0.71875 -6.515625 C 1.070312 -7.179688 1.566406 -7.695312 2.203125 -8.0625 C 2.835938 -8.425781 3.566406 -8.609375 4.390625 -8.609375 C 5.378906 -8.609375 6.191406 -8.425781 6.828125 -8.0625 C 7.460938 -7.695312 7.929688 -7.179688 8.234375 -6.515625 C 8.546875 -5.847656 8.703125 -5.0625 8.703125 -4.15625 C 8.703125 -3.25 8.535156 -2.46875 8.203125 -1.8125 C 7.878906 -1.164062 7.398438 -0.664062 6.765625 -0.3125 C 6.140625 0.0390625 5.375 0.21875 4.46875 0.21875 Z M 4.46875 -1.671875 C 4.851562 -1.671875 5.15625 -1.894531 5.375 -2.34375 C 5.59375 -2.800781 5.703125 -3.40625 5.703125 -4.15625 C 5.703125 -4.644531 5.65625 -5.082031 5.5625 -5.46875 C 5.46875 -5.863281 5.320312 -6.175781 5.125 -6.40625 C 4.9375 -6.644531 4.6875 -6.765625 4.375 -6.765625 C 4.132812 -6.773438 3.921875 -6.671875 3.734375 -6.453125 C 3.546875 -6.234375 3.398438 -5.929688 3.296875 -5.546875 C 3.191406 -5.171875 3.140625 -4.734375 3.140625 -4.234375 C 3.140625 -3.453125 3.265625 -2.828125 3.515625 -2.359375 C 3.773438 -1.898438 4.09375 -1.671875 4.46875 -1.671875 Z M 4.46875 -1.671875 "/></g></g></g></g></g></g><g transform="matrix(1, 0, 0, 1, 37, 56)"><g clip-path="url(#f8524e48ec)"><g clip-path="url(#47cc02454b)"><g fill="#4c4c4c" fill-opacity="1"><g transform="translate(0.439346, 4.809063)"><g><path d="M 0.203125 -2.703125 L 0.796875 -2.703125 L 0.796875 0 L 0.203125 0 Z M 0.203125 -2.703125 "/></g></g></g></g><g fill="#4c4c4c" fill-opacity="1"><g transform="translate(1.964649, 4.809063)"><g><path d="M 0.203125 -2.703125 L 0.625 -2.703125 L 1.171875 -1.40625 L 1.171875 -2.703125 L 1.671875 -2.703125 L 1.671875 0 L 1.265625 0 L 0.71875 -1.40625 L 0.71875 0 L 0.203125 0 Z M 0.203125 -2.703125 "/></g></g></g><g fill="#4c4c4c" fill-opacity="1"><g transform="translate(4.359536, 4.809063)"><g><path d="M 0.4375 -2.265625 L 0.03125 -2.265625 L 0.03125 -2.703125 L 1.453125 -2.703125 L 1.453125 -2.265625 L 1.046875 -2.265625 L 1.046875 0 L 0.4375 0 Z M 0.4375 -2.265625 "/></g></g></g><g fill="#4c4c4c" fill-opacity="1"><g transform="translate(6.366454, 4.809063)"><g><path d="M 0.203125 -2.703125 L 1.421875 -2.703125 L 1.421875 -2.296875 L 0.796875 -2.296875 L 0.796875 -1.625 L 1.265625 -1.625 L 1.265625 -1.21875 L 0.796875 -1.21875 L 0.796875 -0.40625 L 1.421875 -0.40625 L 1.421875 0 L 0.203125 0 Z M 0.203125 -2.703125 "/></g></g></g><g fill="#4c4c4c" fill-opacity="1"><g transform="translate(8.380062, 4.809063)"><g><path d="M 0.203125 -2.703125 L 0.953125 -2.703125 C 1.242188 -2.703125 1.460938 -2.648438 1.609375 -2.546875 C 1.765625 -2.441406 1.84375 -2.257812 1.84375 -2 C 1.84375 -1.8125 1.816406 -1.664062 1.765625 -1.5625 C 1.722656 -1.457031 1.640625 -1.375 1.515625 -1.3125 L 1.890625 0 L 1.265625 0 L 0.96875 -1.21875 L 0.796875 -1.21875 L 0.796875 0 L 0.203125 0 Z M 0.96875 -1.5625 C 1.082031 -1.5625 1.164062 -1.59375 1.21875 -1.65625 C 1.269531 -1.71875 1.296875 -1.8125 1.296875 -1.9375 C 1.296875 -2.0625 1.269531 -2.15625 1.21875 -2.21875 C 1.175781 -2.28125 1.101562 -2.3125 1 -2.3125 L 0.796875 -2.3125 L 0.796875 -1.5625 Z M 0.96875 -1.5625 "/></g></g></g><g fill="#4c4c4c" fill-opacity="1"><g transform="translate(10.905388, 4.809063)"><g><path d="M 0.203125 -2.703125 L 0.625 -2.703125 L 1.171875 -1.40625 L 1.171875 -2.703125 L 1.671875 -2.703125 L 1.671875 0 L 1.265625 0 L 0.71875 -1.40625 L 0.71875 0 L 0.203125 0 Z M 0.203125 -2.703125 "/></g></g></g><g fill="#4c4c4c" fill-opacity="1"><g transform="translate(13.300274, 4.809063)"><g><path d="M 0.578125 -2.703125 L 1.265625 -2.703125 L 1.765625 0 L 1.21875 0 L 1.125 -0.578125 L 0.734375 -0.578125 L 0.640625 0 L 0.0625 0 Z M 1.0625 -0.921875 L 0.921875 -1.984375 L 0.78125 -0.921875 Z M 1.0625 -0.921875 "/></g></g></g><g fill="#4c4c4c" fill-opacity="1"><g transform="translate(15.661715, 4.809063)"><g><path d="M 0.4375 -2.265625 L 0.03125 -2.265625 L 0.03125 -2.703125 L 1.453125 -2.703125 L 1.453125 -2.265625 L 1.046875 -2.265625 L 1.046875 0 L 0.4375 0 Z M 0.4375 -2.265625 "/></g></g></g><g fill="#4c4c4c" fill-opacity="1"><g transform="translate(17.668634, 4.809063)"><g><path d="M 0.203125 -2.703125 L 0.796875 -2.703125 L 0.796875 0 L 0.203125 0 Z M 0.203125 -2.703125 "/></g></g></g><g fill="#4c4c4c" fill-opacity="1"><g transform="translate(19.193938, 4.809063)"><g><path d="M 0.96875 0.046875 C 0.675781 0.046875 0.46875 -0.0234375 0.34375 -0.171875 C 0.21875 -0.328125 0.15625 -0.554688 0.15625 -0.859375 L 0.15625 -1.859375 C 0.15625 -2.148438 0.21875 -2.367188 0.34375 -2.515625 C 0.46875 -2.671875 0.675781 -2.75 0.96875 -2.75 C 1.269531 -2.75 1.484375 -2.671875 1.609375 -2.515625 C 1.734375 -2.367188 1.796875 -2.148438 1.796875 -1.859375 L 1.796875 -0.859375 C 1.796875 -0.554688 1.734375 -0.328125 1.609375 -0.171875 C 1.484375 -0.0234375 1.269531 0.046875 0.96875 0.046875 Z M 0.96875 -0.390625 C 1.0625 -0.390625 1.117188 -0.414062 1.140625 -0.46875 C 1.171875 -0.53125 1.1875 -0.609375 1.1875 -0.703125 L 1.1875 -2 C 1.1875 -2.101562 1.171875 -2.179688 1.140625 -2.234375 C 1.117188 -2.296875 1.0625 -2.328125 0.96875 -2.328125 C 0.894531 -2.328125 0.84375 -2.296875 0.8125 -2.234375 C 0.789062 -2.179688 0.78125 -2.101562 0.78125 -2 L 0.78125 -0.703125 C 0.78125 -0.609375 0.789062 -0.53125 0.8125 -0.46875 C 0.832031 -0.414062 0.882812 -0.390625 0.96875 -0.390625 Z M 0.96875 -0.390625 "/></g></g></g><g fill="#4c4c4c" fill-opacity="1"><g transform="translate(21.672439, 4.809063)"><g><path d="M 0.203125 -2.703125 L 0.625 -2.703125 L 1.171875 -1.40625 L 1.171875 -2.703125 L 1.671875 -2.703125 L 1.671875 0 L 1.265625 0 L 0.71875 -1.40625 L 0.71875 0 L 0.203125 0 Z M 0.203125 -2.703125 "/></g></g></g><g fill="#4c4c4c" fill-opacity="1"><g transform="translate(24.067325, 4.809063)"><g><path d="M 0.578125 -2.703125 L 1.265625 -2.703125 L 1.765625 0 L 1.21875 0 L 1.125 -0.578125 L 0.734375 -0.578125 L 0.640625 0 L 0.0625 0 Z M 1.0625 -0.921875 L 0.921875 -1.984375 L 0.78125 -0.921875 Z M 1.0625 -0.921875 "/></g></g></g><g fill="#4c4c4c" fill-opacity="1"><g transform="translate(26.428766, 4.809063)"><g><path d="M 0.203125 -2.703125 L 0.796875 -2.703125 L 0.796875 -0.40625 L 1.421875 -0.40625 L 1.421875 0 L 0.203125 0 Z M 0.203125 -2.703125 "/></g></g></g><g fill="#4c4c4c" fill-opacity="1"><g transform="translate(28.428995, 4.809063)"><g><path d="M 1.015625 0.59375 C 0.785156 0.59375 0.609375 0.519531 0.484375 0.375 C 0.367188 0.226562 0.289062 0.0390625 0.25 -0.1875 C 0.21875 -0.414062 0.203125 -0.707031 0.203125 -1.0625 C 0.203125 -1.425781 0.21875 -1.722656 0.25 -1.953125 C 0.289062 -2.191406 0.367188 -2.378906 0.484375 -2.515625 C 0.609375 -2.660156 0.785156 -2.734375 1.015625 -2.734375 L 1.015625 -2.359375 C 0.929688 -2.359375 0.867188 -2.304688 0.828125 -2.203125 C 0.785156 -2.109375 0.753906 -1.96875 0.734375 -1.78125 C 0.710938 -1.601562 0.703125 -1.363281 0.703125 -1.0625 C 0.703125 -0.757812 0.710938 -0.515625 0.734375 -0.328125 C 0.753906 -0.148438 0.785156 -0.015625 0.828125 0.078125 C 0.867188 0.171875 0.929688 0.21875 1.015625 0.21875 Z M 1.015625 0.59375 "/></g></g></g><g fill="#4c4c4c" fill-opacity="1"><g transform="translate(30.078046, 4.809063)"><g><path d="M 0.203125 -2.703125 L 0.625 -2.703125 L 1.171875 -1.40625 L 1.171875 -2.703125 L 1.671875 -2.703125 L 1.671875 0 L 1.265625 0 L 0.71875 -1.40625 L 0.71875 0 L 0.203125 0 Z M 0.203125 -2.703125 "/></g></g></g><g fill="#4c4c4c" fill-opacity="1"><g transform="translate(32.472933, 4.809063)"><g><path d="M 0.203125 -2.703125 L 0.796875 -2.703125 L 0.796875 0 L 0.203125 0 Z M 0.203125 -2.703125 "/></g></g></g><g fill="#4c4c4c" fill-opacity="1"><g transform="translate(33.998237, 4.809063)"><g><path d="M 0.90625 0.046875 C 0.632812 0.046875 0.441406 -0.0351562 0.328125 -0.203125 C 0.210938 -0.367188 0.15625 -0.597656 0.15625 -0.890625 L 0.15625 -1.8125 C 0.15625 -2.113281 0.21875 -2.34375 0.34375 -2.5 C 0.46875 -2.664062 0.675781 -2.75 0.96875 -2.75 C 1.257812 -2.75 1.460938 -2.675781 1.578125 -2.53125 C 1.703125 -2.394531 1.765625 -2.203125 1.765625 -1.953125 L 1.765625 -1.78125 L 1.1875 -1.78125 L 1.1875 -2 C 1.1875 -2.101562 1.171875 -2.179688 1.140625 -2.234375 C 1.117188 -2.296875 1.066406 -2.328125 0.984375 -2.328125 C 0.898438 -2.328125 0.84375 -2.296875 0.8125 -2.234375 C 0.789062 -2.171875 0.78125 -2.085938 0.78125 -1.984375 L 0.78125 -0.734375 C 0.78125 -0.617188 0.796875 -0.53125 0.828125 -0.46875 C 0.859375 -0.414062 0.914062 -0.390625 1 -0.390625 C 1.15625 -0.390625 1.234375 -0.503906 1.234375 -0.734375 L 1.234375 -1.046875 L 0.984375 -1.046875 L 0.984375 -1.40625 L 1.765625 -1.40625 L 1.765625 0 L 1.375 0 L 1.34375 -0.21875 C 1.257812 -0.0390625 1.113281 0.046875 0.90625 0.046875 Z M 0.90625 0.046875 "/></g></g></g><g fill="#4c4c4c" fill-opacity="1"><g transform="translate(36.463359, 4.809063)"><g><path d="M 0.109375 0.21875 C 0.191406 0.21875 0.253906 0.171875 0.296875 0.078125 C 0.335938 -0.015625 0.367188 -0.148438 0.390625 -0.328125 C 0.410156 -0.515625 0.421875 -0.757812 0.421875 -1.0625 C 0.421875 -1.363281 0.410156 -1.601562 0.390625 -1.78125 C 0.378906 -1.96875 0.347656 -2.109375 0.296875 -2.203125 C 0.253906 -2.304688 0.191406 -2.359375 0.109375 -2.359375 L 0.109375 -2.734375 C 0.347656 -2.734375 0.523438 -2.660156 0.640625 -2.515625 C 0.753906 -2.378906 0.828125 -2.191406 0.859375 -1.953125 C 0.898438 -1.722656 0.921875 -1.425781 0.921875 -1.0625 C 0.921875 -0.71875 0.898438 -0.425781 0.859375 -0.1875 C 0.828125 0.0390625 0.753906 0.226562 0.640625 0.375 C 0.523438 0.519531 0.347656 0.59375 0.109375 0.59375 Z M 0.109375 0.21875 "/></g></g></g><g fill="#4c4c4c" fill-opacity="1"><g transform="translate(12.046898, 9.387697)"><g><path d="M 0.203125 -2.703125 L 0.796875 -2.703125 L 0.796875 -0.40625 L 1.421875 -0.40625 L 1.421875 0 L 0.203125 0 Z M 0.203125 -2.703125 "/></g></g></g><g fill="#4c4c4c" fill-opacity="1"><g transform="translate(14.047127, 9.387697)"><g><path d="M 0.203125 -2.703125 L 0.796875 -2.703125 L 0.796875 0 L 0.203125 0 Z M 0.203125 -2.703125 "/></g></g></g><g fill="#4c4c4c" fill-opacity="1"><g transform="translate(15.572431, 9.387697)"><g><path d="M 0.234375 -2.703125 L 0.875 -2.703125 L 1.171875 -1.140625 L 1.5 -2.703125 L 2.109375 -2.703125 L 2.15625 0 L 1.734375 0 L 1.6875 -1.796875 L 1.375 0 L 1 0 L 0.65625 -1.8125 L 0.625 0 L 0.1875 0 Z M 0.234375 -2.703125 "/></g></g></g><g fill="#4c4c4c" fill-opacity="1"><g transform="translate(18.445589, 9.387697)"><g><path d="M 0.203125 -2.703125 L 0.796875 -2.703125 L 0.796875 0 L 0.203125 0 Z M 0.203125 -2.703125 "/></g></g></g><g fill="#4c4c4c" fill-opacity="1"><g transform="translate(19.970893, 9.387697)"><g><path d="M 0.4375 -2.265625 L 0.03125 -2.265625 L 0.03125 -2.703125 L 1.453125 -2.703125 L 1.453125 -2.265625 L 1.046875 -2.265625 L 1.046875 0 L 0.4375 0 Z M 0.4375 -2.265625 "/></g></g></g><g fill="#4c4c4c" fill-opacity="1"><g transform="translate(21.977812, 9.387697)"><g><path d="M 0.203125 -2.703125 L 1.421875 -2.703125 L 1.421875 -2.296875 L 0.796875 -2.296875 L 0.796875 -1.625 L 1.265625 -1.625 L 1.265625 -1.21875 L 0.796875 -1.21875 L 0.796875 -0.40625 L 1.421875 -0.40625 L 1.421875 0 L 0.203125 0 Z M 0.203125 -2.703125 "/></g></g></g><g fill="#4c4c4c" fill-opacity="1"><g transform="translate(23.99142, 9.387697)"><g><path d="M 0.203125 -2.703125 L 0.890625 -2.703125 C 1.117188 -2.703125 1.296875 -2.671875 1.421875 -2.609375 C 1.554688 -2.554688 1.648438 -2.46875 1.703125 -2.34375 C 1.765625 -2.21875 1.796875 -2.054688 1.796875 -1.859375 L 1.796875 -0.875 C 1.796875 -0.664062 1.765625 -0.5 1.703125 -0.375 C 1.648438 -0.25 1.554688 -0.15625 1.421875 -0.09375 C 1.296875 -0.03125 1.117188 0 0.890625 0 L 0.203125 0 Z M 0.890625 -0.421875 C 0.972656 -0.421875 1.035156 -0.429688 1.078125 -0.453125 C 1.117188 -0.472656 1.144531 -0.507812 1.15625 -0.5625 C 1.175781 -0.613281 1.1875 -0.6875 1.1875 -0.78125 L 1.1875 -1.953125 C 1.1875 -2.046875 1.175781 -2.113281 1.15625 -2.15625 C 1.144531 -2.195312 1.117188 -2.226562 1.078125 -2.25 C 1.035156 -2.28125 0.972656 -2.296875 0.890625 -2.296875 L 0.796875 -2.296875 L 0.796875 -0.421875 Z M 0.890625 -0.421875 "/></g></g></g></g></g><g clip-path="url(#982111dc60)"><path fill="#ffb800" d="M 62.046875 14.910156 C 62.503906 15.140625 62.941406 15.394531 63.367188 15.675781 L 65.769531 14.445312 L 67.121094 15.792969 L 68.46875 17.144531 L 67.238281 19.546875 C 68.152344 20.933594 68.8125 22.5 69.160156 24.179688 L 71.726562 25.011719 L 71.726562 28.824219 L 69.160156 29.65625 C 68.8125 31.335938 68.152344 32.902344 67.242188 34.289062 L 68.46875 36.695312 L 67.121094 38.042969 L 65.769531 39.390625 L 63.367188 38.164062 C 61.980469 39.074219 60.414062 39.734375 58.734375 40.082031 L 57.902344 42.652344 L 54.089844 42.652344 L 53.257812 40.082031 C 51.578125 39.734375 50.011719 39.074219 48.625 38.164062 L 46.21875 39.390625 L 43.523438 36.695312 L 44.75 34.289062 C 43.839844 32.902344 43.179688 31.339844 42.832031 29.65625 L 40.265625 28.824219 L 40.265625 25.011719 L 42.832031 24.179688 C 43.179688 22.5 43.839844 20.933594 44.75 19.546875 L 43.523438 17.144531 L 44.871094 15.792969 L 46.21875 14.445312 L 48.625 15.675781 C 49.050781 15.394531 49.488281 15.140625 49.945312 14.910156 C 49.550781 15.414062 49.15625 15.917969 48.777344 16.421875 C 46.34375 19.652344 44.71875 22.734375 44.71875 26.917969 C 44.71875 33.148438 49.765625 38.195312 55.996094 38.195312 C 62.222656 38.195312 67.273438 33.148438 67.273438 26.917969 C 67.273438 22.734375 65.648438 19.652344 63.214844 16.421875 C 62.835938 15.914062 62.441406 15.414062 62.046875 14.910156 " fill-opacity="1" fill-rule="evenodd"/></g><g clip-path="url(#0df2423d3a)"><path fill="#4c4c4c" d="M 60.796875 35.101562 C 56.042969 35.1875 53.804688 33.199219 52.507812 31.453125 C 49.953125 28.011719 52.320312 23.132812 55.074219 20.460938 C 56.050781 19.515625 56.605469 18.410156 56.882812 17.269531 C 57.832031 13.390625 55.550781 9.089844 55.550781 9.089844 C 53.359375 15.699219 46.511719 18.964844 46.511719 26.917969 C 46.511719 32.15625 50.757812 36.402344 55.996094 36.402344 C 57.746094 36.402344 59.386719 35.929688 60.796875 35.101562 M 61.714844 26.917969 C 61.714844 32.242188 56.371094 33.371094 52.472656 29.546875 C 52.683594 33.125 62.109375 37.363281 64.976562 30.128906 C 67.621094 23.449219 61.371094 17.65625 58.113281 12.53125 C 57.996094 13.972656 57.894531 16.871094 58.632812 19.519531 C 60.144531 21.503906 61.347656 23.417969 61.652344 26.058594 C 61.6875 26.347656 61.714844 26.625 61.714844 26.917969 Z M 61.714844 26.917969 " fill-opacity="1" fill-rule="evenodd"/></g><path fill="#4c4c4c" d="M 59.695312 23.945312 C 59.695312 23.945312 60.980469 27.089844 59.027344 30.574219 C 60.074219 29.703125 60.742188 28.386719 60.742188 26.917969 C 60.742188 25.792969 60.351562 24.757812 59.695312 23.945312 " fill-opacity="1" fill-rule="evenodd"/></svg>