<svg xmlns="http://www.w3.org/2000/svg" xmlns:xlink="http://www.w3.org/1999/xlink" width="500" zoomAndPan="magnify" viewBox="0 0 375 374.999991" height="500" preserveAspectRatio="xMidYMid meet" version="1.0"><defs><g/><clipPath id="00dec2538f"><path d="M 0.199219 3 L 2 3 L 2 8 L 0.199219 8 Z M 0.199219 3 " clip-rule="nonzero"/></clipPath><clipPath id="d27312f047"><rect x="0" width="62" y="0" height="17"/></clipPath><clipPath id="1233b73897"><path d="M 162.011719 141 L 212.980469 141 L 212.980469 187.8125 L 162.011719 187.8125 Z M 162.011719 141 " clip-rule="nonzero"/></clipPath><clipPath id="a6d0b4236a"><path d="M 172 133.0625 L 204 133.0625 L 204 178 L 172 178 Z M 172 133.0625 " clip-rule="nonzero"/></clipPath></defs><rect x="-37.5" width="450" fill="#ffffff" y="-37.499999" height="449.999989" fill-opacity="1"/><rect x="-37.5" width="450" fill="#ffffff" y="-37.499999" height="449.999989" fill-opacity="1"/><g fill="#251818" fill-opacity="1"><g transform="translate(149.991661, 206.632911)"><g><path d="M 0.484375 -13.609375 L 12.21875 -13.609375 L 12.21875 -9.3125 L 8.859375 -9.3125 L 8.859375 -11.03125 L 5.75 -11.03125 L 5.75 -8.359375 L 9.4375 -8.359375 L 9.4375 -5.765625 L 5.75 -5.765625 L 5.75 -2.59375 L 8.859375 -2.59375 L 8.859375 -4.40625 L 12.21875 -4.40625 L 12.21875 0 L 0.484375 0 L 0.484375 -2.59375 L 1.71875 -2.59375 L 1.71875 -11.03125 L 0.484375 -11.03125 Z M 0.484375 -13.609375 "/></g></g></g><g fill="#251818" fill-opacity="1"><g transform="translate(162.694579, 206.632911)"><g><path d="M 0.484375 0 L 0.484375 -2.59375 L 1.6875 -2.59375 L 1.6875 -11.03125 L 0.484375 -11.03125 L 0.484375 -13.609375 L 6.421875 -13.609375 C 7.992188 -13.609375 9.332031 -13.316406 10.4375 -12.734375 C 11.539062 -12.148438 12.378906 -11.359375 12.953125 -10.359375 C 13.535156 -9.359375 13.828125 -8.234375 13.828125 -6.984375 C 13.828125 -4.765625 13.179688 -3.046875 11.890625 -1.828125 C 10.597656 -0.609375 8.75 0 6.34375 0 Z M 5.6875 -2.59375 L 6.421875 -2.59375 C 7.109375 -2.601562 7.664062 -2.804688 8.09375 -3.203125 C 8.519531 -3.597656 8.832031 -4.125 9.03125 -4.78125 C 9.238281 -5.445312 9.34375 -6.179688 9.34375 -6.984375 C 9.34375 -7.691406 9.238281 -8.351562 9.03125 -8.96875 C 8.832031 -9.582031 8.519531 -10.078125 8.09375 -10.453125 C 7.664062 -10.835938 7.109375 -11.03125 6.421875 -11.03125 L 5.6875 -11.03125 Z M 5.6875 -2.59375 "/></g></g></g><g fill="#251818" fill-opacity="1"><g transform="translate(176.700865, 206.632911)"><g><path d="M 7.1875 -7.46875 L 7.265625 -7.46875 C 7.296875 -7.664062 7.394531 -7.9375 7.5625 -8.28125 C 7.738281 -8.625 7.878906 -8.914062 7.984375 -9.15625 L 9.046875 -11.109375 L 7.984375 -11.109375 L 7.984375 -13.609375 L 13.21875 -13.609375 L 13.21875 -11.109375 L 12.171875 -11.109375 L 8.5625 -4.796875 L 8.5625 -2.53125 L 9.65625 -2.53125 L 9.65625 0 L 3.421875 0 L 3.421875 -2.53125 L 4.53125 -2.53125 L 4.53125 -4.828125 L 0.765625 -11.109375 L -0.1875 -11.109375 L -0.1875 -13.609375 L 6.46875 -13.609375 L 6.46875 -11.109375 L 5.453125 -11.109375 L 6.578125 -9.046875 C 6.617188 -8.929688 6.679688 -8.769531 6.765625 -8.5625 C 6.847656 -8.351562 6.929688 -8.148438 7.015625 -7.953125 C 7.097656 -7.753906 7.15625 -7.59375 7.1875 -7.46875 Z M 7.1875 -7.46875 "/></g></g></g><g fill="#282120" fill-opacity="1"><g transform="translate(189.718221, 206.632911)"><g><path d="M 0.921875 -5.9375 L 6.5625 -5.9375 L 6.5625 -3.34375 L 0.921875 -3.34375 Z M 0.921875 -5.9375 "/></g></g></g><g fill="#ffb800" fill-opacity="1"><g transform="translate(197.229939, 206.632911)"><g><path d="M 0.484375 0 L 0.484375 -2.53125 L 1.609375 -2.53125 L 1.609375 -11.09375 L 0.484375 -11.09375 L 0.484375 -13.609375 L 7.75 -13.609375 C 9.375 -13.609375 10.570312 -13.316406 11.34375 -12.734375 C 12.125 -12.160156 12.515625 -11.34375 12.515625 -10.28125 C 12.515625 -9.457031 12.378906 -8.820312 12.109375 -8.375 C 11.835938 -7.925781 11.335938 -7.554688 10.609375 -7.265625 C 11.304688 -7.066406 11.910156 -6.703125 12.421875 -6.171875 C 12.929688 -5.640625 13.1875 -4.898438 13.1875 -3.953125 C 13.1875 -2.578125 12.769531 -1.570312 11.9375 -0.9375 C 11.113281 -0.3125 9.765625 0 7.890625 0 Z M 5.640625 -11.03125 L 5.640625 -8.125 L 6.828125 -8.125 C 7.347656 -8.125 7.695312 -8.253906 7.875 -8.515625 C 8.0625 -8.785156 8.15625 -9.15625 8.15625 -9.625 C 8.15625 -10.070312 8.035156 -10.414062 7.796875 -10.65625 C 7.554688 -10.90625 7.25 -11.03125 6.875 -11.03125 Z M 5.640625 -2.53125 L 7.203125 -2.53125 C 7.617188 -2.53125 7.984375 -2.675781 8.296875 -2.96875 C 8.617188 -3.269531 8.78125 -3.679688 8.78125 -4.203125 C 8.78125 -4.691406 8.640625 -5.097656 8.359375 -5.421875 C 8.078125 -5.753906 7.671875 -5.921875 7.140625 -5.921875 L 5.640625 -5.921875 Z M 5.640625 -2.53125 "/></g></g></g><g fill="#ffb800" fill-opacity="1"><g transform="translate(210.594268, 206.632911)"><g><path d="M 7.265625 0.34375 C 5.910156 0.34375 4.707031 0.0820312 3.65625 -0.4375 C 2.601562 -0.957031 1.78125 -1.753906 1.1875 -2.828125 C 0.59375 -3.898438 0.296875 -5.25 0.296875 -6.875 C 0.296875 -8.269531 0.582031 -9.503906 1.15625 -10.578125 C 1.738281 -11.648438 2.546875 -12.484375 3.578125 -13.078125 C 4.609375 -13.679688 5.789062 -13.984375 7.125 -13.984375 C 8.71875 -13.984375 10.03125 -13.679688 11.0625 -13.078125 C 12.09375 -12.484375 12.859375 -11.644531 13.359375 -10.5625 C 13.859375 -9.476562 14.109375 -8.203125 14.109375 -6.734375 C 14.109375 -5.265625 13.84375 -4 13.3125 -2.9375 C 12.78125 -1.882812 12.003906 -1.070312 10.984375 -0.5 C 9.972656 0.0625 8.734375 0.34375 7.265625 0.34375 Z M 7.265625 -2.703125 C 7.867188 -2.703125 8.347656 -3.070312 8.703125 -3.8125 C 9.066406 -4.550781 9.25 -5.523438 9.25 -6.734375 C 9.25 -7.523438 9.171875 -8.238281 9.015625 -8.875 C 8.867188 -9.507812 8.640625 -10.019531 8.328125 -10.40625 C 8.015625 -10.789062 7.609375 -10.984375 7.109375 -10.984375 C 6.710938 -10.992188 6.363281 -10.820312 6.0625 -10.46875 C 5.757812 -10.125 5.519531 -9.640625 5.34375 -9.015625 C 5.175781 -8.390625 5.09375 -7.675781 5.09375 -6.875 C 5.09375 -5.601562 5.296875 -4.585938 5.703125 -3.828125 C 6.117188 -3.078125 6.640625 -2.703125 7.265625 -2.703125 Z M 7.265625 -2.703125 "/></g></g></g><g transform="matrix(1, 0, 0, 1, 157, 208)"><g clip-path="url(#d27312f047)"><g clip-path="url(#00dec2538f)"><g fill="#4c4c4c" fill-opacity="1"><g transform="translate(0.403462, 7.496711)"><g><path d="M 0.328125 -4.390625 L 1.296875 -4.390625 L 1.296875 0 L 0.328125 0 Z M 0.328125 -4.390625 "/></g></g></g></g><g fill="#4c4c4c" fill-opacity="1"><g transform="translate(2.87663, 7.496711)"><g><path d="M 0.328125 -4.390625 L 1.015625 -4.390625 L 1.90625 -2.28125 L 1.90625 -4.390625 L 2.71875 -4.390625 L 2.71875 0 L 2.0625 0 L 1.15625 -2.28125 L 1.15625 0 L 0.328125 0 Z M 0.328125 -4.390625 "/></g></g></g><g fill="#4c4c4c" fill-opacity="1"><g transform="translate(6.759763, 7.496711)"><g><path d="M 0.71875 -3.671875 L 0.0625 -3.671875 L 0.0625 -4.390625 L 2.359375 -4.390625 L 2.359375 -3.671875 L 1.703125 -3.671875 L 1.703125 0 L 0.71875 0 Z M 0.71875 -3.671875 "/></g></g></g><g fill="#4c4c4c" fill-opacity="1"><g transform="translate(10.013834, 7.496711)"><g><path d="M 0.328125 -4.390625 L 2.296875 -4.390625 L 2.296875 -3.734375 L 1.296875 -3.734375 L 1.296875 -2.640625 L 2.0625 -2.640625 L 2.0625 -1.96875 L 1.296875 -1.96875 L 1.296875 -0.65625 L 2.3125 -0.65625 L 2.3125 0 L 0.328125 0 Z M 0.328125 -4.390625 "/></g></g></g><g fill="#4c4c4c" fill-opacity="1"><g transform="translate(13.278752, 7.496711)"><g><path d="M 0.328125 -4.390625 L 1.53125 -4.390625 C 2.007812 -4.390625 2.375 -4.300781 2.625 -4.125 C 2.875 -3.957031 3 -3.660156 3 -3.234375 C 3 -2.941406 2.957031 -2.707031 2.875 -2.53125 C 2.800781 -2.351562 2.660156 -2.21875 2.453125 -2.125 L 3.0625 0 L 2.0625 0 L 1.578125 -1.96875 L 1.296875 -1.96875 L 1.296875 0 L 0.328125 0 Z M 1.5625 -2.53125 C 1.757812 -2.53125 1.894531 -2.578125 1.96875 -2.671875 C 2.050781 -2.773438 2.09375 -2.929688 2.09375 -3.140625 C 2.09375 -3.335938 2.054688 -3.484375 1.984375 -3.578125 C 1.910156 -3.679688 1.785156 -3.734375 1.609375 -3.734375 L 1.296875 -3.734375 L 1.296875 -2.53125 Z M 1.5625 -2.53125 "/></g></g></g><g fill="#4c4c4c" fill-opacity="1"><g transform="translate(17.373382, 7.496711)"><g><path d="M 0.328125 -4.390625 L 1.015625 -4.390625 L 1.90625 -2.28125 L 1.90625 -4.390625 L 2.71875 -4.390625 L 2.71875 0 L 2.0625 0 L 1.15625 -2.28125 L 1.15625 0 L 0.328125 0 Z M 0.328125 -4.390625 "/></g></g></g><g fill="#4c4c4c" fill-opacity="1"><g transform="translate(21.256515, 7.496711)"><g><path d="M 0.9375 -4.390625 L 2.046875 -4.390625 L 2.875 0 L 1.96875 0 L 1.828125 -0.921875 L 1.1875 -0.921875 L 1.03125 0 L 0.109375 0 Z M 1.734375 -1.5 L 1.5 -3.21875 L 1.265625 -1.5 Z M 1.734375 -1.5 "/></g></g></g><g fill="#4c4c4c" fill-opacity="1"><g transform="translate(25.085418, 7.496711)"><g><path d="M 0.71875 -3.671875 L 0.0625 -3.671875 L 0.0625 -4.390625 L 2.359375 -4.390625 L 2.359375 -3.671875 L 1.703125 -3.671875 L 1.703125 0 L 0.71875 0 Z M 0.71875 -3.671875 "/></g></g></g><g fill="#4c4c4c" fill-opacity="1"><g transform="translate(28.33949, 7.496711)"><g><path d="M 0.328125 -4.390625 L 1.296875 -4.390625 L 1.296875 0 L 0.328125 0 Z M 0.328125 -4.390625 "/></g></g></g><g fill="#4c4c4c" fill-opacity="1"><g transform="translate(30.812658, 7.496711)"><g><path d="M 1.578125 0.0625 C 1.109375 0.0625 0.769531 -0.0546875 0.5625 -0.296875 C 0.363281 -0.546875 0.265625 -0.90625 0.265625 -1.375 L 0.265625 -3.015625 C 0.265625 -3.492188 0.363281 -3.851562 0.5625 -4.09375 C 0.769531 -4.332031 1.109375 -4.453125 1.578125 -4.453125 C 2.054688 -4.453125 2.394531 -4.328125 2.59375 -4.078125 C 2.800781 -3.835938 2.90625 -3.484375 2.90625 -3.015625 L 2.90625 -1.375 C 2.90625 -0.90625 2.800781 -0.546875 2.59375 -0.296875 C 2.394531 -0.0546875 2.054688 0.0625 1.578125 0.0625 Z M 1.578125 -0.625 C 1.722656 -0.625 1.816406 -0.671875 1.859375 -0.765625 C 1.898438 -0.859375 1.921875 -0.984375 1.921875 -1.140625 L 1.921875 -3.25 C 1.921875 -3.414062 1.898438 -3.539062 1.859375 -3.625 C 1.816406 -3.71875 1.722656 -3.765625 1.578125 -3.765625 C 1.453125 -3.765625 1.367188 -3.71875 1.328125 -3.625 C 1.285156 -3.53125 1.265625 -3.40625 1.265625 -3.25 L 1.265625 -1.140625 C 1.265625 -0.984375 1.28125 -0.859375 1.3125 -0.765625 C 1.351562 -0.671875 1.441406 -0.625 1.578125 -0.625 Z M 1.578125 -0.625 "/></g></g></g><g fill="#4c4c4c" fill-opacity="1"><g transform="translate(34.831366, 7.496711)"><g><path d="M 0.328125 -4.390625 L 1.015625 -4.390625 L 1.90625 -2.28125 L 1.90625 -4.390625 L 2.71875 -4.390625 L 2.71875 0 L 2.0625 0 L 1.15625 -2.28125 L 1.15625 0 L 0.328125 0 Z M 0.328125 -4.390625 "/></g></g></g><g fill="#4c4c4c" fill-opacity="1"><g transform="translate(38.714498, 7.496711)"><g><path d="M 0.9375 -4.390625 L 2.046875 -4.390625 L 2.875 0 L 1.96875 0 L 1.828125 -0.921875 L 1.1875 -0.921875 L 1.03125 0 L 0.109375 0 Z M 1.734375 -1.5 L 1.5 -3.21875 L 1.265625 -1.5 Z M 1.734375 -1.5 "/></g></g></g><g fill="#4c4c4c" fill-opacity="1"><g transform="translate(42.543402, 7.496711)"><g><path d="M 0.328125 -4.390625 L 1.296875 -4.390625 L 1.296875 -0.65625 L 2.296875 -0.65625 L 2.296875 0 L 0.328125 0 Z M 0.328125 -4.390625 "/></g></g></g><g fill="#4c4c4c" fill-opacity="1"><g transform="translate(45.786627, 7.496711)"><g><path d="M 1.640625 0.96875 C 1.265625 0.96875 0.984375 0.847656 0.796875 0.609375 C 0.609375 0.367188 0.484375 0.0625 0.421875 -0.3125 C 0.367188 -0.6875 0.34375 -1.15625 0.34375 -1.71875 C 0.34375 -2.3125 0.367188 -2.796875 0.421875 -3.171875 C 0.472656 -3.546875 0.59375 -3.847656 0.78125 -4.078125 C 0.976562 -4.316406 1.265625 -4.4375 1.640625 -4.4375 L 1.640625 -3.828125 C 1.503906 -3.828125 1.398438 -3.742188 1.328125 -3.578125 C 1.265625 -3.421875 1.21875 -3.191406 1.1875 -2.890625 C 1.164062 -2.585938 1.15625 -2.195312 1.15625 -1.71875 C 1.15625 -1.238281 1.164062 -0.847656 1.1875 -0.546875 C 1.21875 -0.253906 1.269531 -0.0351562 1.34375 0.109375 C 1.414062 0.265625 1.515625 0.34375 1.640625 0.34375 Z M 1.640625 0.96875 "/></g></g></g><g fill="#4c4c4c" fill-opacity="1"><g transform="translate(48.460442, 7.496711)"><g><path d="M 0.328125 -4.390625 L 1.015625 -4.390625 L 1.90625 -2.28125 L 1.90625 -4.390625 L 2.71875 -4.390625 L 2.71875 0 L 2.0625 0 L 1.15625 -2.28125 L 1.15625 0 L 0.328125 0 Z M 0.328125 -4.390625 "/></g></g></g><g fill="#4c4c4c" fill-opacity="1"><g transform="translate(52.343575, 7.496711)"><g><path d="M 0.328125 -4.390625 L 1.296875 -4.390625 L 1.296875 0 L 0.328125 0 Z M 0.328125 -4.390625 "/></g></g></g><g fill="#4c4c4c" fill-opacity="1"><g transform="translate(54.816743, 7.496711)"><g><path d="M 1.46875 0.0625 C 1.03125 0.0625 0.71875 -0.0664062 0.53125 -0.328125 C 0.351562 -0.585938 0.265625 -0.960938 0.265625 -1.453125 L 0.265625 -2.921875 C 0.265625 -3.421875 0.363281 -3.800781 0.5625 -4.0625 C 0.769531 -4.320312 1.109375 -4.453125 1.578125 -4.453125 C 2.035156 -4.453125 2.363281 -4.335938 2.5625 -4.109375 C 2.769531 -3.890625 2.875 -3.578125 2.875 -3.171875 L 2.875 -2.890625 L 1.921875 -2.890625 L 1.921875 -3.25 C 1.921875 -3.414062 1.898438 -3.539062 1.859375 -3.625 C 1.816406 -3.71875 1.726562 -3.765625 1.59375 -3.765625 C 1.445312 -3.765625 1.351562 -3.710938 1.3125 -3.609375 C 1.28125 -3.515625 1.265625 -3.382812 1.265625 -3.21875 L 1.265625 -1.1875 C 1.265625 -1.007812 1.289062 -0.867188 1.34375 -0.765625 C 1.394531 -0.671875 1.488281 -0.625 1.625 -0.625 C 1.875 -0.625 2 -0.8125 2 -1.1875 L 2 -1.703125 L 1.609375 -1.703125 L 1.609375 -2.28125 L 2.875 -2.28125 L 2.875 0 L 2.234375 0 L 2.171875 -0.359375 C 2.035156 -0.078125 1.800781 0.0625 1.46875 0.0625 Z M 1.46875 0.0625 "/></g></g></g><g fill="#4c4c4c" fill-opacity="1"><g transform="translate(58.813758, 7.496711)"><g><path d="M 0.1875 0.34375 C 0.3125 0.34375 0.410156 0.265625 0.484375 0.109375 C 0.554688 -0.0351562 0.601562 -0.253906 0.625 -0.546875 C 0.65625 -0.847656 0.671875 -1.238281 0.671875 -1.71875 C 0.671875 -2.207031 0.660156 -2.597656 0.640625 -2.890625 C 0.617188 -3.191406 0.570312 -3.421875 0.5 -3.578125 C 0.425781 -3.742188 0.320312 -3.828125 0.1875 -3.828125 L 0.1875 -4.4375 C 0.5625 -4.4375 0.84375 -4.320312 1.03125 -4.09375 C 1.226562 -3.863281 1.351562 -3.554688 1.40625 -3.171875 C 1.46875 -2.796875 1.5 -2.3125 1.5 -1.71875 C 1.5 -1.15625 1.46875 -0.6875 1.40625 -0.3125 C 1.351562 0.0625 1.226562 0.367188 1.03125 0.609375 C 0.84375 0.847656 0.5625 0.96875 0.1875 0.96875 Z M 0.1875 0.34375 "/></g></g></g><g fill="#4c4c4c" fill-opacity="1"><g transform="translate(19.224257, 14.92063)"><g><path d="M 0.328125 -4.390625 L 1.296875 -4.390625 L 1.296875 -0.65625 L 2.296875 -0.65625 L 2.296875 0 L 0.328125 0 Z M 0.328125 -4.390625 "/></g></g></g><g fill="#4c4c4c" fill-opacity="1"><g transform="translate(22.467482, 14.92063)"><g><path d="M 0.328125 -4.390625 L 1.296875 -4.390625 L 1.296875 0 L 0.328125 0 Z M 0.328125 -4.390625 "/></g></g></g><g fill="#4c4c4c" fill-opacity="1"><g transform="translate(24.94065, 14.92063)"><g><path d="M 0.390625 -4.390625 L 1.421875 -4.390625 L 1.90625 -1.84375 L 2.421875 -4.390625 L 3.4375 -4.390625 L 3.515625 0 L 2.8125 0 L 2.734375 -2.921875 L 2.234375 0 L 1.609375 0 L 1.078125 -2.9375 L 1.015625 0 L 0.3125 0 Z M 0.390625 -4.390625 "/></g></g></g><g fill="#4c4c4c" fill-opacity="1"><g transform="translate(29.599266, 14.92063)"><g><path d="M 0.328125 -4.390625 L 1.296875 -4.390625 L 1.296875 0 L 0.328125 0 Z M 0.328125 -4.390625 "/></g></g></g><g fill="#4c4c4c" fill-opacity="1"><g transform="translate(32.072434, 14.92063)"><g><path d="M 0.71875 -3.671875 L 0.0625 -3.671875 L 0.0625 -4.390625 L 2.359375 -4.390625 L 2.359375 -3.671875 L 1.703125 -3.671875 L 1.703125 0 L 0.71875 0 Z M 0.71875 -3.671875 "/></g></g></g><g fill="#4c4c4c" fill-opacity="1"><g transform="translate(35.326506, 14.92063)"><g><path d="M 0.328125 -4.390625 L 2.296875 -4.390625 L 2.296875 -3.734375 L 1.296875 -3.734375 L 1.296875 -2.640625 L 2.0625 -2.640625 L 2.0625 -1.96875 L 1.296875 -1.96875 L 1.296875 -0.65625 L 2.3125 -0.65625 L 2.3125 0 L 0.328125 0 Z M 0.328125 -4.390625 "/></g></g></g><g fill="#4c4c4c" fill-opacity="1"><g transform="translate(38.591423, 14.92063)"><g><path d="M 0.328125 -4.390625 L 1.4375 -4.390625 C 1.8125 -4.390625 2.101562 -4.34375 2.3125 -4.25 C 2.53125 -4.15625 2.679688 -4.007812 2.765625 -3.8125 C 2.859375 -3.613281 2.90625 -3.34375 2.90625 -3 L 2.90625 -1.40625 C 2.90625 -1.070312 2.859375 -0.800781 2.765625 -0.59375 C 2.679688 -0.394531 2.535156 -0.242188 2.328125 -0.140625 C 2.117188 -0.046875 1.828125 0 1.453125 0 L 0.328125 0 Z M 1.453125 -0.671875 C 1.585938 -0.671875 1.6875 -0.691406 1.75 -0.734375 C 1.820312 -0.773438 1.863281 -0.832031 1.875 -0.90625 C 1.894531 -0.988281 1.90625 -1.109375 1.90625 -1.265625 L 1.90625 -3.171875 C 1.90625 -3.316406 1.894531 -3.425781 1.875 -3.5 C 1.863281 -3.570312 1.820312 -3.625 1.75 -3.65625 C 1.6875 -3.695312 1.582031 -3.71875 1.4375 -3.71875 L 1.296875 -3.71875 L 1.296875 -0.671875 Z M 1.453125 -0.671875 "/></g></g></g></g></g><g clip-path="url(#1233b73897)"><path fill="#ffb800" d="M 197.3125 142.503906 C 198.050781 142.875 198.765625 143.289062 199.453125 143.742188 L 203.351562 141.75 L 205.539062 143.9375 L 207.726562 146.121094 L 205.734375 150.023438 C 207.210938 152.273438 208.285156 154.808594 208.847656 157.535156 L 213.011719 158.882812 L 213.011719 165.066406 L 208.847656 166.417969 C 208.285156 169.140625 207.210938 171.679688 205.734375 173.929688 L 207.726562 177.828125 L 203.351562 182.203125 L 199.453125 180.210938 C 197.203125 181.691406 194.664062 182.761719 191.941406 183.324219 L 190.59375 187.488281 L 184.40625 187.488281 L 183.058594 183.324219 C 180.335938 182.761719 177.796875 181.691406 175.546875 180.210938 L 171.644531 182.203125 L 169.460938 180.015625 L 167.273438 177.832031 L 169.265625 173.929688 C 167.785156 171.679688 166.714844 169.144531 166.148438 166.417969 L 161.988281 165.066406 L 161.988281 158.882812 L 166.148438 157.535156 C 166.714844 154.808594 167.789062 152.273438 169.265625 150.023438 L 167.273438 146.121094 L 169.460938 143.9375 L 171.644531 141.75 L 175.546875 143.742188 C 176.234375 143.289062 176.949219 142.875 177.6875 142.503906 C 177.046875 143.320312 176.40625 144.132812 175.792969 144.953125 C 171.84375 150.191406 169.207031 155.191406 169.207031 161.976562 C 169.207031 172.078125 177.398438 180.265625 187.5 180.265625 C 197.601562 180.265625 205.789062 172.078125 205.789062 161.976562 C 205.789062 155.191406 203.152344 150.191406 199.207031 144.953125 C 198.589844 144.132812 197.953125 143.320312 197.3125 142.503906 " fill-opacity="1" fill-rule="evenodd"/></g><g clip-path="url(#a6d0b4236a)"><path fill="#4c4c4c" d="M 195.285156 175.246094 C 187.578125 175.386719 183.945312 172.160156 181.84375 169.328125 C 177.699219 163.75 181.539062 155.835938 186.003906 151.503906 C 187.585938 149.96875 188.492188 148.179688 188.941406 146.328125 C 190.476562 140.039062 186.78125 133.0625 186.78125 133.0625 C 183.222656 143.78125 172.117188 149.078125 172.117188 161.976562 C 172.117188 170.472656 179.003906 177.355469 187.5 177.355469 C 190.339844 177.355469 193 176.585938 195.285156 175.246094 M 196.773438 161.976562 C 196.773438 170.613281 188.109375 172.441406 181.789062 166.234375 C 182.125 172.042969 197.410156 178.914062 202.0625 167.183594 C 206.355469 156.351562 196.214844 146.957031 190.929688 138.644531 C 190.742188 140.980469 190.578125 145.679688 191.777344 149.972656 C 194.226562 153.191406 196.175781 156.296875 196.671875 160.582031 C 196.730469 161.054688 196.773438 161.5 196.773438 161.976562 Z M 196.773438 161.976562 " fill-opacity="1" fill-rule="evenodd"/></g><path fill="#4c4c4c" d="M 193.5 157.152344 C 193.5 157.152344 195.582031 162.257812 192.414062 167.902344 C 194.113281 166.488281 195.199219 164.359375 195.199219 161.976562 C 195.199219 160.148438 194.5625 158.472656 193.5 157.152344 " fill-opacity="1" fill-rule="evenodd"/></svg>